<?xml version="1.0" encoding="UTF-8" standalone="no"?>
<!-- Created with Inkscape (http://www.inkscape.org/) -->

<svg
   xmlns:dc="http://purl.org/dc/elements/1.1/"
   xmlns:cc="http://creativecommons.org/ns#"
   xmlns:rdf="http://www.w3.org/1999/02/22-rdf-syntax-ns#"
   xmlns:svg="http://www.w3.org/2000/svg"
   xmlns="http://www.w3.org/2000/svg"
   xmlns:sodipodi="http://sodipodi.sourceforge.net/DTD/sodipodi-0.dtd"
   xmlns:inkscape="http://www.inkscape.org/namespaces/inkscape"
   width="199mm"
   height="199mm"
   viewBox="0 0 199 199"
   version="1.1"
   id="svg8"
   inkscape:version="0.92.3 (2405546, 2018-03-11)"
   sodipodi:docname="logoclub.svg">
  <defs
     id="defs2" />
  <sodipodi:namedview
     id="base"
     pagecolor="#ffffff"
     bordercolor="#666666"
     borderopacity="1.0"
     inkscape:pageopacity="0.0"
     inkscape:pageshadow="2"
     inkscape:zoom="1.23"
     inkscape:cx="390.58751"
     inkscape:cy="465.3713"
     inkscape:document-units="mm"
     inkscape:current-layer="svg8"
     showgrid="false"
     inkscape:window-width="1920"
     inkscape:window-height="1027"
     inkscape:window-x="-8"
     inkscape:window-y="-8"
     inkscape:window-maximized="1"
     fit-margin-top="0"
     fit-margin-left="0"
     fit-margin-right="0"
     fit-margin-bottom="0" />
  <metadata
     id="metadata5">
    <rdf:RDF>
      <cc:Work
         rdf:about="">
        <dc:format>image/svg+xml</dc:format>
        <dc:type
           rdf:resource="http://purl.org/dc/dcmitype/StillImage" />
        <dc:title />
      </cc:Work>
    </rdf:RDF>
  </metadata>
  <circle
     id="path3740"
     cx="99.5"
     cy="99.5"
     style="display:inline;fill:#fffff5;stroke:#484bbb;stroke-width:0.55996907;stroke-miterlimit:4;stroke-dasharray:none;stroke-opacity:1;fill-opacity:1"
     r="99.220016"
     inkscape:label="Cercle_exterieur" />
  <circle
     inkscape:label="Cercle_interieur"
     r="78.279106"
     style="display:inline;opacity:1;fill:#484bbb;fill-opacity:1;stroke:#484bbb;stroke-width:0.44178393;stroke-miterlimit:4;stroke-dasharray:none;stroke-opacity:1"
     cy="99.500031"
     cx="99.5"
     id="circle4547"
     sodipodi:insensitive="true" />
  <path
     id="path897"
     transform="scale(0.26458333)"
     style="display:inline;fill:#ffffff;fill-opacity:1;stroke:#fffff5;stroke-width:0.5714286;stroke-opacity:1"
     d="m 304.65048,376.16135 c -0.19756,-0.31966 0.47888,-0.8523 1.5032,-1.18363 3.06572,-0.99164 9.19168,-2.32934 10.70856,-2.33838 l 1.41758,-0.008 -1.85694,1.85715 c -1.75303,1.75322 -2.12432,1.86826 -6.63506,2.05583 -2.84353,0.11825 -4.92357,-0.0366 -5.13734,-0.38252 z m 21.02057,-3.76469 c -0.20217,-0.52685 -0.24466,-1.08083 -0.0944,-1.23106 0.40523,-0.40524 9.64035,-1.96942 11.29661,-1.91335 2.0948,0.0709 -5.0726,3.31255 -8.30329,3.75537 -2.04898,0.28084 -2.60134,0.16443 -2.89889,-0.61096 z m -62.86938,111.95366 c 13.10165,-5.38695 19.59672,-9.5344 31.70549,-20.24567 7.16474,-6.33783 9.65725,-8.01421 11.91589,-8.01421 5.49511,0 2.41379,5.07175 -7.70265,12.6783 -10.00848,7.52537 -33.79656,18.39416 -42.83704,19.57228 -3.24093,0.42234 -1.81696,-0.39905 6.91831,-3.9907 z m 60.08936,-124.42363 c -0.83574,-1.35226 2.00363,-1.97227 8.66077,-1.89119 6.04584,0.0736 6.14823,0.11425 3.42824,1.35972 -3.16403,1.44878 -11.301,1.80651 -12.08901,0.53147 z m -24.82688,8.45833 c 0,-0.54569 1.78738,-1.80588 3.97196,-2.80042 2.18458,-0.99454 5.42188,-2.90776 7.19399,-4.25161 3.30367,-2.50526 5.50749,-2.09573 4.39022,0.81583 -1.00269,2.61298 -15.55617,8.44722 -15.55617,6.2362 z m -13.45253,-5.59254 c -0.32339,-0.52327 0.77216,-1.23487 2.46306,-1.59986 5.17457,-1.11695 9.30529,-3.74354 16.81573,-10.69256 7.01603,-6.49157 9.12701,-7.36743 9.12701,-3.78686 0,5.571 -25.85508,20.20643 -28.4058,16.07928 z M 243.53825,332.3056 c -8.26431,-3.39799 -8.37707,-3.85557 -0.58599,-2.37802 6.25382,1.18602 9.3175,-0.38213 9.3175,-4.76919 0,-2.18992 -1.22722,-4.13818 -5.28904,-8.39658 -2.90898,-3.04975 -5.05253,-5.78151 -4.76347,-6.07058 1.01824,-1.01823 8.57099,3.60393 13.48861,8.25481 6.55053,6.19522 6.65794,10.96053 0.32092,14.23753 -3.71372,1.92044 -6.0885,1.75349 -12.48853,-0.87797 z m -41.73578,15.17505 c -7.63957,-1.35412 -7.93964,-2.60516 -0.62488,-2.60516 4.57621,0 6.43001,-0.36222 6.80094,-1.32884 1.52072,-3.96293 -5.97945,-8.43544 -22.76485,-13.57518 -5.26869,-1.61329 -9.57944,-3.18061 -9.57944,-3.48292 0,-0.30231 4.34653,-0.35635 9.65896,-0.12008 8.28596,0.36851 10.51115,0.83227 15.6542,3.26252 7.55119,3.56817 17.41011,10.83138 18.7783,13.83424 1.70743,3.7474 -0.28367,5.16885 -7.05636,5.03755 -3.14968,-0.0611 -8.03977,-0.52102 -10.86687,-1.02213 z m 120.23114,-2.75587 c -2.75661,-0.77703 -3.90676,-1.74759 -4.90654,-4.14042 -2.07655,-4.96987 -1.63043,-5.21045 4.09585,-2.20882 7.47192,3.91668 17.87897,5.11626 22.83203,2.63177 3.93239,-1.97252 4.84215,-2.15247 4.00094,-0.79136 -2.46598,3.99004 -18.19454,6.7153 -26.02228,4.50883 z m 62.01185,-45.4739 c -0.77103,-0.25332 -2.68828,-1.43513 -4.26055,-2.62625 -3.47425,-2.63202 -12.98305,-6.28333 -20.27216,-7.78438 -2.95561,-0.60864 -5.37384,-1.49737 -5.37384,-1.97495 0,-1.12592 10.1545,-1.1077 17.10529,0.0307 2.98267,0.4885 7.27949,1.81533 9.54849,2.94853 4.68896,2.34178 9.33746,6.77375 8.50961,8.11324 -0.73378,1.18728 -3.50451,1.86884 -5.25684,1.29312 z m -28.03739,368.38128 c -24.25083,-2.2885 -33.54942,-3.79392 -51.86916,-8.39747 C 252.56914,646.27577 211.85695,623.69545 172.93426,586.46427 159.3215,573.44309 140.44666,550.8653 136.05355,542.3481 l -1.54463,-2.99468 3.03929,-0.50202 c 4.65471,-0.76885 60.15126,-4.25629 67.73151,-4.25629 3.68104,0 6.94906,-0.41462 7.26226,-0.92138 0.36844,-0.59616 -9.92107,-1.00852 -29.15045,-1.16822 -25.68494,-0.21333 -29.7199,-0.43717 -29.7199,-1.64871 0,-0.77103 3.57476,-3.81328 7.94392,-6.76056 10.23546,-6.90446 14.26765,-11.3842 20.48522,-22.75894 7.14847,-13.07778 13.89976,-23.47693 15.68675,-24.16266 0.83817,-0.32164 3.89794,-0.83293 6.79949,-1.1362 8.07333,-0.84383 14.03789,3.07872 14.03789,9.23192 0,5.34062 3.359,2.55755 19.0112,-15.75159 4.45213,-5.20788 12.6151,-13.39983 18.13993,-18.20433 5.52482,-4.8045 15.99422,-14.35785 23.26533,-21.22967 l 13.22021,-12.49421 0.55495,-6.68464 c 0.30523,-3.67655 0.78289,-8.57716 1.06147,-10.89025 0.27859,-2.31308 0.1779,-4.65298 -0.22376,-5.19978 -0.40164,-0.5468 -5.14616,-4.4681 -10.54335,-8.71403 -5.3972,-4.24592 -13.40986,-11.15836 -17.80592,-15.36097 -4.39605,-4.20261 -10.29006,-8.99927 -13.0978,-10.65926 l -5.10499,-3.01816 -27.0891,-0.93196 c -27.01259,-0.92934 -36.61579,-2.08212 -42.19544,-5.06518 -2.66739,-1.42608 -21.52893,-16.9278 -27.18339,-22.34121 -1.67056,-1.59933 -3.03738,-3.35693 -3.03738,-3.90576 0,-0.54884 5.58632,-6.5727 12.41405,-13.38638 l 12.41405,-12.3885 27.53922,-0.0808 c 22.52599,-0.0661 28.8152,0.20346 34.54857,1.48036 5.47538,1.21943 10.69086,1.49677 23.83177,1.26726 9.25234,-0.16161 18.15483,0.0673 19.78332,0.50863 2.70621,0.73344 3.08804,0.55656 4.43925,-2.05639 2.11608,-4.09206 1.84376,-6.42407 -1.20206,-10.29382 -8.23585,-10.46376 -11.39667,-17.73082 -13.24547,-30.45281 -1.39564,-9.60373 -0.7167,-13.37045 4.00838,-22.23848 5.61194,-10.53248 8.14499,-13.1466 18.27183,-18.85658 9.71336,-5.47686 16.33295,-7.6473 20.67486,-6.77892 6.83974,1.36796 34.1804,13.88058 35.4295,16.21454 2.45105,4.57983 2.78738,11.65424 0.96497,20.29667 -1.60078,7.59137 -1.67395,9.50602 -0.68216,17.84932 1.67078,14.05504 0.75361,13.06527 12.1291,13.08938 8.75373,0.0185 10.79938,0.38082 20.79409,3.68252 l 11.08522,3.66196 7.60637,-1.57641 c 9.57962,-1.98536 26.81832,-2.04991 43.1261,-0.1615 13.25715,1.53516 46.22578,7.20163 55.08139,9.46711 3.90097,0.99795 8.90869,1.32985 16.82243,1.11493 11.25056,-0.30555 11.27706,-0.31166 17.10056,-3.93824 3.20789,-1.99772 6.34312,-4.24743 6.96715,-4.99935 1.47806,-1.78095 -0.49814,-11.48329 -6.23689,-30.62078 -18.7397,-62.49267 -55.47674,-115.29414 -107.82188,-154.97039 -11.68497,-8.856908 -14.60166,-12.184443 -7.44913,-8.498443 16.24285,8.370633 43.12017,30.935713 63.4653,53.282833 30.36347,33.35127 52.97096,75.56872 65.35103,122.03723 2.97527,11.16759 4.53629,15.29825 7.40473,19.59378 5.81683,8.71075 7.52037,22.55387 3.87223,31.46587 -1.51025,3.68937 -1.96244,8.57285 -2.87179,31.01437 -0.59361,14.64954 -1.27915,28.73832 -1.52343,31.30842 l -0.44414,4.67289 5.41873,2.88814 c 2.9803,1.58849 14.4339,8.4226 25.45244,15.18692 11.01854,6.76433 20.69144,12.29896 21.49533,12.2992 0.80389,2.3e-4 10.3232,-3.00274 21.15403,-6.67328 17.07945,-5.78816 20.24167,-6.59066 23.83178,-6.04791 2.27665,0.34418 4.7702,1.04261 5.54122,1.55207 1.19286,0.78818 1.06606,1.2077 -0.85045,2.8137 -1.23879,1.03808 -2.91753,2.25968 -3.73054,2.71466 -1.93367,1.08214 -0.74676,2.23582 1.55019,1.50679 0.98062,-0.31123 4.21748,-2.03188 7.193,-3.82364 6.13841,-3.69637 6.63785,-3.81786 7.41109,-1.80283 1.23721,3.22412 -5.29589,39.10687 -10.2034,56.04163 -3.42295,11.81189 -10.6936,29.59501 -19.09706,46.70904 -24.92399,50.75887 -67.07984,94.07961 -119.51989,122.8226 -24.13436,13.22831 -43.46181,20.6677 -72.56602,27.93161 -18.23612,4.55142 -28.99594,6.38709 -44.76189,7.63651 -11.10617,0.88015 -35.82088,1.07719 -43.55587,0.34726 z m 44.97748,-27.60321 c -2.13097,-5.3017 -5.868,-13.63477 -8.30449,-18.51795 -4.18691,-8.39133 -4.81461,-9.14785 -11.43934,-13.78712 -3.85514,-2.69973 -13.04653,-10.05954 -20.42533,-16.35514 -7.37878,-6.29559 -14.03417,-11.8005 -14.78972,-12.23312 -3.76431,-2.15544 -1.4791,1.1979 7.34864,10.7835 13.50876,14.66848 37.72255,43.92131 41.97725,50.71298 5.3966,8.61446 7.49127,11.05249 8.56954,9.97422 0.62753,-0.62753 -0.3443,-4.12805 -2.93655,-10.57737 z m 42.68958,2.7742 c 3.89497,-3.61147 11.48259,-9.87962 16.86137,-13.92922 9.48952,-7.14453 9.93471,-7.36319 15.00876,-7.37186 15.01376,-0.0257 41.56537,-1.99575 44.02254,-3.26641 1.44751,-0.74853 7.17274,-6.94162 12.72275,-13.76243 5.55001,-6.82082 13.15692,-15.6342 16.90422,-19.58529 6.47836,-6.83066 7.97723,-9.17133 5.87295,-9.17133 -0.51719,0 -5.66906,4.33203 -11.4486,9.62673 -20.55253,18.82842 -29.97819,25.93277 -36.67647,27.644 -2.05607,0.52527 -11.72897,1.84594 -21.49532,2.93482 -22.74001,2.53536 -23.53785,2.90443 -39.6327,18.33354 -12.41161,11.89824 -14.65804,14.57734 -13.62484,16.24911 0.87783,1.42033 3.65763,-0.44372 11.48534,-7.70166 z M 332.64359,615.12738 c 0,-0.42688 -1.99767,-2.19915 -4.43925,-3.93836 -2.44159,-1.73921 -11.04331,-9.63894 -19.11494,-17.55497 l -14.67568,-14.39277 -18.73006,1.94017 c -10.30152,1.06709 -19.64943,2.43221 -20.77312,3.03358 -3.75757,2.01099 0.34459,3.29566 14.24151,4.46001 14.87307,1.24613 16.41763,1.75111 28.86117,9.43584 23.8599,14.73508 34.63037,20.02743 34.63037,17.0165 z m 114.55715,-5.72294 c 7.67114,-1.51843 22.35874,-4.24181 32.63911,-6.05198 21.54815,-3.79419 25.21732,-4.72233 27.43479,-6.9398 0.88687,-0.88687 3.64177,-7.06284 6.122,-13.72437 12.48562,-33.53451 25.47377,-54.65315 64.71127,-105.22008 10.08152,-12.99244 13.41418,-16.8062 13.41418,-15.3506 0,0.35671 -3.89018,8.14867 -8.64486,17.31548 -4.75467,9.16679 -8.34758,16.96904 -7.98423,17.33833 2.14021,2.1752 5.29356,-2.25512 30.56169,-42.93785 8.27352,-13.32071 14.84197,-24.42028 14.59655,-24.66569 -0.24542,-0.24542 -2.8023,1.61129 -5.68195,4.12602 -8.19664,7.15791 -13.66843,11.58236 -14.31261,11.57306 -0.32486,-0.005 -4.33975,-2.6914 -8.92196,-5.97046 -11.40686,-8.16285 -17.66725,-11.85309 -23.38069,-13.78194 -5.88296,-1.98606 -15.34079,-3.58694 -21.2479,-3.5965 l -4.36175,-0.007 -4.42604,13.31776 c -5.93928,17.87102 -9.13086,25.25296 -18.14224,41.96186 -16.40515,30.41845 -35.65108,54.97497 -62.7471,80.06114 -11.16749,10.33913 -26.57654,22.39273 -27.47623,21.49303 -0.22764,-0.22764 2.62127,-2.90976 6.33089,-5.96028 10.3508,-8.51171 30.94422,-28.83443 39.2398,-38.72398 23.78425,-28.35432 43.14284,-63.54776 54.23511,-98.59813 4.17454,-13.19111 4.50561,-14.70379 3.55478,-16.24226 -0.45399,-0.73457 -5.83222,-2.23675 -12.70944,-3.54984 -12.87658,-2.45814 -18.53268,-4.81069 -29.88369,-12.42915 l -6.54205,-4.39083 -19.07997,8.72458 c -31.54409,14.42397 -32.63734,14.75717 -57.55555,17.54147 -7.19626,0.8041 -18.42418,2.14583 -24.95095,2.98161 l -11.86684,1.51962 -0.63067,2.92262 c -1.49342,6.92056 -6.32456,18.50653 -8.24034,19.76179 -1.11078,0.7278 -5.79106,2.41622 -10.40063,3.75201 -4.60957,1.3358 -9.82215,3.52792 -11.58351,4.87138 -1.76137,1.34346 -11.85831,10.83377 -22.43766,21.08957 -10.57936,10.25581 -21.54828,20.20765 -24.37538,22.11519 -7.57182,5.10898 -32.55017,20.00549 -39.02899,23.27599 -5.93694,2.99696 -18.45484,6.6548 -22.77411,6.6548 -1.41492,0 -2.86836,0.4786 -3.22988,1.06356 -0.48677,0.7876 2.10567,0.87002 9.99157,0.31764 12.62359,-0.88423 24.88433,-0.73815 45.22833,0.53889 29.2188,1.83413 30.94919,2.30655 58.52112,15.97701 17.25469,8.55505 16.88435,8.17388 28.86206,29.70608 4.36915,7.85439 8.90934,15.24855 10.0893,16.43147 2.88399,2.89122 16.84201,7.2577 35.70509,11.16958 8.48131,1.75888 15.87315,3.22103 16.42631,3.2492 0.55316,0.0282 7.28214,-1.1911 14.95327,-2.70952 z M 244.32583,557.44916 c 47.46815,-4.11044 67.20785,-6.04539 70.38167,-6.89907 2.38528,-0.64157 2.41875,-0.72711 0.64637,-1.65214 -1.02804,-0.53656 -6.91589,-2.14169 -13.08411,-3.56697 l -11.21496,-2.59142 -25.23364,0.60835 c -13.87851,0.3346 -46.26168,1.04847 -71.96262,1.5864 -25.70093,0.53792 -47.08954,1.33663 -47.53024,1.7749 -1.5687,1.56005 2.81597,2.61472 13.41809,3.22751 15.07121,0.87109 38.51304,3.38656 40.18691,4.31233 1.0299,0.56961 -0.27199,1.52634 -4.90654,3.60572 -3.46962,1.55672 -6.30841,3.11589 -6.30841,3.46481 0,0.79508 8.81341,0.18165 55.60748,-3.87042 z m 311.78435,-7.95027 c 16.37586,-8.20659 19.09019,-10.1203 36.36284,-25.63724 18.99658,-17.06564 20.85977,-19.17308 16.95098,-19.17308 -2.58889,0 -11.05197,5.79523 -28.18228,19.29823 -8.48131,6.68541 -21.20327,16.43232 -28.27103,21.65981 -18.14193,13.4182 -17.50599,14.19853 3.13949,3.85228 z M 225.16695,535.57204 c 0,-1.11093 -5.53257,-2.20632 -8.52244,-1.68735 l -2.22522,0.38625 2.33645,1.03743 c 2.90779,1.29111 8.41121,1.46363 8.41121,0.26367 z m 13.63555,-5.65484 c 9.447,-2.39504 20.31869,-7.65305 39.63548,-19.1694 16.34844,-9.74668 19.3016,-12.2846 46.8852,-40.29284 12.55459,-12.74787 12.53431,-12.71572 9.89959,-15.68323 -2.05471,-2.31425 -2.31436,-2.35819 -9.58853,-1.62266 -4.11215,0.4158 -8.21261,0.56782 -9.11215,0.33782 -1.88147,-0.48108 -2.20206,-2.86365 -0.46729,-3.47281 5.99561,-2.10541 6.56509,-2.45201 5.60537,-3.41173 -0.62707,-0.62707 -5.25527,-0.94883 -12.2586,-0.85222 -6.18815,0.0853 -13.00188,-0.31621 -15.14162,-0.89238 -3.88234,-1.04541 -3.8892,-1.05521 -3.3031,-4.72053 0.44147,-2.76078 0.27186,-3.67295 -0.68296,-3.67295 -1.9454,0 -14.06039,10.72721 -24.32545,21.53895 -23.2674,24.50653 -33.59003,41.24812 -28.19418,45.72628 3.09702,2.5703 14.41663,0.95335 26.8249,-3.83178 4.09394,-1.57879 7.65832,-2.65577 7.92081,-2.39326 0.71802,0.71801 -7.12691,5.08717 -15.31008,8.52679 -19.30789,8.11568 -31.08836,6.51135 -31.08836,-4.23376 0,-2.0468 1.47973,-7.55296 3.2883,-12.23592 1.80856,-4.68296 3.04384,-8.75892 2.74508,-9.05769 -0.56583,-0.56583 -13.64246,12.54326 -18.99735,19.0445 -1.69353,2.05608 -2.79621,2.8972 -2.4504,1.86916 0.3458,-1.02803 0.85517,-5.03764 1.13191,-8.91023 l 0.50318,-7.04108 -3.42325,-3.00565 c -7.81525,-6.86188 -13.73707,-2.33632 -24.80567,18.95696 -6.03099,11.60214 -8.18241,14.44551 -14.59155,19.28445 -2.79537,2.11053 -5.08249,4.20736 -5.08249,4.65962 0,1.21805 5.40725,0.97783 10.89818,-0.48415 8.86889,-2.36138 12.20746,-4.95938 18.13743,-14.11412 8.82267,-13.62049 7.97256,-13.21444 8.76027,-4.18423 0.37848,4.33885 1.1406,8.73754 1.69358,9.77484 1.83921,3.45006 7.65908,9.93914 11.39559,12.70596 3.20684,2.3746 4.49993,2.73147 9.89723,2.73147 3.41464,0 9.53506,-0.84339 13.60093,-1.87418 z m -30.09931,-0.97746 c 0.87007,-0.80364 -4.18336,-8.25644 -8.05233,-11.8756 l -2.25608,-2.1104 -6.77865,6.99085 c -3.76832,3.88628 -6.49804,7.44492 -6.14676,8.0133 0.72823,1.1783 21.85833,0.25234 23.23382,-1.01815 z m 143.79188,-75.77035 c 8.14413,-2.19752 9.19342,-3.18063 11.42519,-10.70458 3.30064,-11.12741 7.4552,-36.5442 6.41606,-39.25217 -0.62905,-1.63926 -2.16983,-1.75085 -2.20322,-0.15958 -0.0135,0.64252 -0.84061,2.85046 -1.83807,4.90654 l -1.81356,3.73832 0.20255,-7.24517 c 0.20031,-7.1646 0.17651,-7.24514 -2.14006,-7.24299 -3.65724,0.004 -8.51407,1.65219 -10.6575,3.618 -2.87243,2.63439 -17.35282,7.73008 -37.25279,13.10937 -18.64503,5.04005 -22.06896,6.37457 -26.14896,10.19186 -4.3108,4.03323 -3.4923,5.33962 4.73654,7.56 9.48426,2.55913 9.91457,2.52157 12.21201,-1.06584 2.66029,-4.154 2.48523,-1.64238 -0.26361,3.78221 -1.23216,2.43155 -2.3887,5.46663 -2.57009,6.74463 l -0.3298,2.32363 8.8785,-0.22291 c 13.99497,-0.35136 13.96259,-0.33269 17.54418,-10.11548 1.68201,-4.59427 3.69161,-9.61488 4.46576,-11.15694 l 1.40758,-2.80374 -0.40777,3.33657 c -0.22427,1.83511 -2.17518,7.93325 -4.33535,13.5514 -2.16017,5.61816 -4.15128,11.21783 -4.42469,12.44371 -0.48378,2.16908 -0.3796,2.21125 3.88405,1.57187 11.52397,-1.72813 12.78411,-3.07826 19.2485,-20.62317 4.4095,-11.96775 6.05237,-14.95463 5.14045,-9.3458 -0.33428,2.05608 -2.93292,9.83645 -5.77477,17.28972 -2.84183,7.45327 -5.38246,14.49767 -5.64585,15.65421 -0.61257,2.68989 0.65371,2.70427 10.24472,0.11633 z m 258.82127,-20.12022 c 10.10681,-8.66318 12.64039,-10.21853 22.50614,-13.81641 5.65082,-2.06077 7.09264,-4.4035 4.37972,-7.11641 -1.61592,-1.61593 -2.64717,-1.85472 -5.86253,-1.3575 -8.14074,1.25886 -18.1401,4.43538 -23.99515,7.62256 -8.30696,4.52189 -10.28037,6.51001 -10.28037,10.357 0,1.87087 -0.38184,2.92729 -0.93458,2.58568 -0.51402,-0.31769 -0.93458,-3.83859 -0.93458,-7.82424 0,-6.69395 -0.19601,-7.43174 -2.57009,-9.67379 -2.45264,-2.31624 -28.13325,-17.90066 -36.41137,-22.09643 -5.39556,-2.73475 -6.49051,-2.53206 -7.80287,1.44443 -1.1182,3.38819 -1.08148,3.48057 2.49762,6.2832 6.0718,4.75456 10.64185,9.59647 10.64185,11.27491 0,1.04565 -1.92118,2.43972 -5.60748,4.06896 -3.08411,1.3631 -5.60747,2.75739 -5.60747,3.09843 0,0.34104 3.25934,1.3209 7.24299,2.17747 11.39044,2.44918 13.08986,3.17684 22.5931,9.67405 4.92193,3.36503 10.98888,7.51379 13.48212,9.21945 2.49324,1.70568 4.894,3.10122 5.33501,3.10122 0.44101,0 5.53859,-4.06016 11.32794,-9.02258 z m -312.49346,4.59406 c -0.36197,-1.87957 -3.3217,-2.72814 -4.70181,-1.34803 -1.4054,1.4054 -3.5e-4,2.97281 2.66489,2.97281 1.72895,0 2.26714,-0.4293 2.03692,-1.62478 z M 431.24172,419.3964 c 9.46001,-2.69511 41.01503,-17.46979 58.61244,-27.44351 3.96581,-2.24771 7.46408,-4.08675 7.77392,-4.08675 0.30984,0 -0.402,1.3557 -1.58186,3.01267 -3.11512,4.37478 -2.87596,9.22394 0.6373,12.92157 5.55507,5.84661 14.0098,8.36483 28.08425,8.36483 9.11506,0 10.88577,-1.0896 12.4432,-7.65684 1.69582,-7.15085 1.49805,-7.69701 -3.66249,-10.11408 -5.6114,-2.62823 -8.34584,-5.2538 -4.64321,-4.45833 1.28505,0.27608 3.89899,1.18456 5.80877,2.01883 3.29598,1.43985 3.52036,1.42709 4.41854,-0.25117 0.92907,-1.736 1.65203,-11.04632 0.90248,-11.62233 -0.21017,-0.1615 -3.75029,-2.24152 -7.86694,-4.62225 -12.03306,-6.95894 -21.60058,-10.99974 -32.64759,-13.78856 l -10.33489,-2.60905 -5.61167,5.3812 c -3.08642,2.95965 -6.87147,6.02841 -8.41121,6.81945 -8.35801,4.29388 -36.31621,10.65225 -48.59394,11.05143 -8.5511,0.27801 -17.70423,0.0461 -17.21184,-0.43625 0.21418,-0.20976 5.20213,-1.08788 11.08435,-1.95138 5.88222,-0.86349 13.16143,-2.33764 16.17602,-3.27589 7.24996,-2.25644 15.49892,-7.31237 17.17197,-10.525 1.25669,-2.41313 1.18702,-2.74004 -1.06359,-4.99064 -2.65249,-2.65249 -3.68038,-2.66311 -30.29404,-0.31303 -13.94793,1.23165 -32.24991,6.592 -45.57023,13.34677 -7.84697,3.97921 -8.06612,4.50652 -5.91572,14.23383 1.2171,5.50554 1.85119,11.89957 1.86454,18.80159 0.0142,7.33199 0.36949,10.67928 1.18845,11.1961 5.0576,3.19171 46.97649,3.92166 57.24299,0.99679 z m -117.01838,-7.73451 c 21.29197,-5.30679 25.26586,-6.59616 27.31782,-8.86355 2.43995,-2.69611 0.48025,-4.33236 -5.87994,-4.90944 -4.45346,-0.40409 -7.76716,0.20554 -19.69965,3.62422 -7.89006,2.26052 -15.14473,4.11003 -16.1215,4.11003 -2.4398,0 -5.51424,3.28274 -5.51424,5.88785 0,1.82513 1.49693,4.39252 2.56107,4.39252 0.17493,0 7.97633,-1.90873 17.33644,-4.24163 z m 239.33313,-3.26504 c 1.37909,-1.29203 -0.23392,-5.41396 -2.3859,-6.09697 -2.52173,-0.80036 -4.50829,1.59908 -4.50829,5.44531 0,2.55368 0.16394,2.66483 3.03738,2.05936 1.67056,-0.352 3.40612,-0.98546 3.85681,-1.4077 z m -239.20691,-8.7591 c 5.74992,-2.40247 4.02974,-3.36039 -6.03436,-3.36039 -9.80365,0 -11.27802,0.64864 -9.862,4.33872 0.49416,1.28778 1.55258,1.44501 6.57232,0.97625 3.29081,-0.3073 7.48663,-1.18686 9.32404,-1.95458 z m 15.12759,-6.65184 c 5.81541,-2.83282 15.97583,-11.97121 19.90433,-17.90215 5.02586,-7.58768 3.41429,-13.38584 -3.72054,-13.38584 -2.01935,0 -3.67156,-0.17116 -3.67156,-0.38035 0,-0.20919 2.44828,-4.51993 5.44064,-9.57944 6.94206,-11.73774 17.155,-30.77211 18.46974,-34.423 0.61871,-1.71809 1.78057,-2.92704 2.98423,-3.10516 1.08408,-0.16042 7.21526,0.99105 13.62484,2.55883 14.47553,3.5407 29.59528,4.97193 40.06106,3.79218 4.25548,-0.47969 18.7637,-1.30435 32.24046,-1.83258 21.18488,-0.83034 26.31507,-1.3372 37.88236,-3.74273 13.63743,-2.83602 23.3176,-5.71126 25.59681,-7.60285 0.69848,-0.57968 1.26996,-1.84359 1.26996,-2.80868 0,-3.03412 0.77738,-2.5953 13.03359,7.35742 2.6902,2.18458 5.43934,3.97196 6.10922,3.97196 2.91038,0 2.54229,-6.59696 -0.66636,-11.94228 -1.44693,-2.41046 -1.60292,-3.34833 -0.73152,-4.3983 1.50105,-1.80866 0.40309,-3.28558 -2.4425,-3.28558 -1.91898,0 -2.23665,-0.33912 -1.75103,-1.86916 0.77774,-2.45045 0.0706,-2.36197 -5.03487,0.63001 -6.12324,3.58845 -19.26066,4.1351 -32.13891,1.33731 -8.5092,-1.84863 -34.77603,-6.64022 -36.40074,-6.64022 -0.3985,0 -0.72455,0.88672 -0.72455,1.9705 0,1.14998 -1.81137,3.63361 -4.35008,5.96456 l -4.3501,3.99406 2.24729,1.20533 c 2.5671,1.37686 16.52571,1.72158 26.54635,0.65559 l 6.54206,-0.69595 -3.27103,1.51927 c -4.48493,2.08307 -22.55574,2.77693 -34.18843,1.31272 -13.21259,-1.66308 -14.20607,-2.22737 -7.38877,-4.19683 10.87376,-3.14132 15.98137,-7.81907 12.42297,-11.37746 -3.78869,-3.7887 -33.04627,-4.22658 -41.09295,-0.61502 -4.84283,2.17359 -5.86916,3.57938 -6.8246,9.34787 -0.71201,4.29882 -3.58976,8.67237 -5.70633,8.67237 -1.61119,0 -1.62773,-0.20205 -0.26199,-3.19954 1.30789,-2.8705 -0.86319,-9.42589 -4.13296,-12.47909 -1.1436,-1.06787 -7.70355,-3.86487 -14.57766,-6.21559 -10.85315,-3.71139 -13.49818,-4.27219 -20.09346,-4.26023 -4.20312,0.007 -8.63853,0.53797 -9.93152,1.18752 -1.28505,0.64557 -3.76624,3.38282 -5.51376,6.08277 -2.67507,4.13308 -3.81994,5.07084 -7.24299,5.93278 l -4.06568,1.02374 v 12.03858 c 0,6.62123 -0.34961,12.03859 -0.77692,12.03859 -0.4273,0 -2.63524,-5.36061 -4.90654,-11.91246 -3.84501,-11.09143 -4.35508,-12.02232 -7.40065,-13.50651 l -3.27103,-1.59406 10.14018,-0.0449 10.14019,-0.0449 3.30893,-3.30892 3.30892,-3.30893 -0.5061,-15.14901 c -0.39957,-11.96012 -0.19347,-16.47273 0.97908,-21.43733 0.81686,-3.45858 1.26976,-6.50376 1.00645,-6.76707 -0.26332,-0.26331 -5.28404,-0.0322 -11.15718,0.51351 -9.43893,0.87706 -11.14977,1.31502 -14.73923,3.77304 l -4.0608,2.78079 -4.10642,-1.56825 c -5.42492,-2.0718 -6.93085,-0.91278 -6.93085,5.33427 0,5.09654 -0.37989,5.45054 -2.732,2.5458 -1.62361,-2.00506 -1.64586,-1.98833 -5.8991,4.43925 -4.26661,6.44781 -4.26961,6.45817 -4.70056,16.265 -0.33583,7.64255 -1.00162,11.36347 -3.01002,16.82243 -4.04629,10.99804 -4.07228,12.02201 -0.38159,15.03421 5.23812,4.27513 2.47683,4.03113 -6.73455,-0.5951 l -8.69944,-4.36912 -8.22826,0.3934 c -9.76704,0.46696 -11.43201,1.50419 -8.1535,5.07942 l 2.27734,2.48346 -3.22663,-0.61641 c -1.77466,-0.33901 -8.08307,-2.60755 -14.01869,-5.04116 l -10.79206,-4.42483 h -28.59369 -28.59369 l -11.86606,11.13363 c -6.52634,6.12349 -11.74329,11.65235 -11.59323,12.28635 0.37954,1.60356 22.7159,20.53304 27.81805,23.57508 6.70053,3.99504 14.6906,4.9885 43.01554,5.34845 l 25.70093,0.32661 8.41121,4.73757 c 4.62617,2.60567 8.72664,4.73854 9.11215,4.73972 1.86853,0.006 0.31266,-1.96566 -3.03738,-3.84849 -5.76741,-3.24147 -4.83595,-4.23364 4.6729,-4.97751 4.62617,-0.36189 8.41121,-0.96954 8.41121,-1.35031 0,-2.23014 -13.96046,-7.43068 -31.55011,-11.753 -9.29334,-2.28367 -11.63978,-3.30305 -20.09346,-8.72936 -5.26426,-3.37906 -12.00326,-7.93218 -14.97555,-10.11804 -6.27532,-4.61493 -7.1224,-4.93889 -15.4548,-5.91078 l -6.24383,-0.72828 5.14018,-0.30941 c 2.82711,-0.17017 6.20975,-0.27803 7.517,-0.23969 1.37996,0.0405 8.89872,4.39631 17.92726,10.38578 15.15522,10.05387 15.7124,10.33038 21.92226,10.87963 20.00973,1.76979 30.49159,3.4149 32.96077,5.17312 4.09648,2.91695 9.39234,9.22519 9.39234,11.1878 0,2.02586 -1.2415,2.55566 -8.9156,3.80465 -2.94697,0.47963 -5.57855,1.09246 -5.84793,1.36186 -0.2694,0.26939 0.30288,1.36572 1.27173,2.43628 1.69745,1.87566 1.70115,2.0517 0.10169,4.83861 -1.6558,2.88505 -1.65345,2.89748 0.95858,5.07815 11.09209,9.26029 30.36266,19.31426 42.80536,22.33268 3.59813,0.87286 6.96262,1.97759 7.47664,2.45496 1.28931,1.1974 5.64288,0.21754 11.31954,-2.54769 z m 8.90403,1.45338 c 2.14806,-1.78952 2.15462,-1.83889 0.24838,-1.86916 -1.07688,-0.0171 -2.71916,0.81003 -3.64952,1.83807 -1.4281,1.57802 -1.46678,1.86916 -0.24839,1.86916 0.79375,0 2.43603,-0.82713 3.64953,-1.83807 z M 541.6101,375.01567 c 0.41541,-0.89953 0.91562,-13.30574 1.11158,-27.56936 l 0.3563,-25.93385 -2.9748,-1.63624 c -1.63615,-0.89994 -5.22316,-2.95889 -7.97114,-4.57546 -4.95355,-2.91405 -5.06277,-2.93194 -12.75641,-2.08942 -9.18725,1.00607 -27.89416,4.22835 -32.52643,5.6027 -1.79907,0.53377 -15.51705,1.54321 -30.48441,2.24322 -14.96735,0.7 -35.78511,2.20463 -46.26168,3.3436 -18.76239,2.03979 -19.23027,2.04612 -31.17069,0.42223 l -12.12237,-1.64864 -1.42903,2.10286 c -0.78596,1.15658 -4.32866,7.39771 -7.87266,13.86918 l -6.44364,11.76632 4.10719,7.76772 c 6.45988,12.21726 3.89522,11.86674 29.10433,3.97769 l 21.73183,-6.80086 41.58879,0.47043 41.58878,0.47042 10.74767,2.84169 c 14.69882,3.88638 19.65147,5.87615 29.43925,11.82745 9.05786,5.50748 11.06416,6.08921 12.23754,3.54832 z m 5.37867,-82.91399 c 0.63036,-1.64273 -0.8253,-2.73358 -2.69194,-2.01729 -1.58314,0.60752 -0.79228,3.38923 0.96358,3.38923 0.66104,0 1.43879,-0.61738 1.72836,-1.37194 z m -163.40418,7.51373 c -0.69493,-0.20925 -2.10743,-1.10283 -3.1389,-1.98573 -3.98873,-3.41419 -12.78258,-6.93272 -21.00197,-8.40313 -6.96483,-1.24597 -8.60075,-2.45691 -4.73445,-3.50451 3.2941,-0.89255 17.97472,0.34476 22.39611,1.88759 4.31714,1.50645 11.29644,6.14398 12.87717,8.55647 0.97281,1.4847 0.1902,2.81009 -2.02209,3.42448 -1.98003,0.54989 -2.62006,0.55352 -4.37587,0.0248 z m -175.4123,49.13499 c -7.07034,-0.84652 -12.42204,-1.86954 -13.21266,-2.5257 -0.89843,-0.74563 -0.80462,-1.80002 0.16405,-1.84385 0.44458,-0.0201 3.31735,-0.006 6.38394,0.0314 4.53874,0.0553 5.68648,-0.0656 6.17172,-0.65027 1.56611,-1.88705 -1.25199,-5.12899 -6.66647,-7.66909 -4.2176,-1.97862 -14.20307,-5.41845 -21.14798,-7.28514 -4.96752,-1.3352 -5.94279,-2.20683 -3.33258,-2.97845 1.9086,-0.56422 13.60847,-0.0256 17.5521,0.80808 9.65373,2.0407 27.02101,14.0626 27.02101,18.70436 0,1.58318 -1.85015,3.48731 -3.75948,3.86918 -1.81159,0.36231 -2.65458,0.31999 -9.17365,-0.46053 z m 37.74618,-14.92991 c -4.04869,-1.32144 -10.49423,-4.75487 -10.49423,-5.5901 0,-0.6036 0.1587,-0.57862 4.59525,0.72316 2.17159,0.63719 5.08766,1.14505 6.57475,1.14505 2.2973,0 2.88312,-0.18831 4.17413,-1.34184 1.23273,-1.10144 1.49335,-1.66343 1.45472,-3.13683 -0.0729,-2.77914 -1.29147,-4.60519 -6.50157,-9.74251 -2.65078,-2.61376 -4.73239,-5.00408 -4.6258,-5.31182 0.29287,-0.84555 2.98434,-0.40357 5.62966,0.92447 5.05537,2.53798 12.06048,8.63835 13.81455,12.03035 0.93419,1.80652 0.96351,4.36469 0.0698,6.09286 -0.96542,1.86692 -4.0785,4.39981 -6.18235,5.03014 -2.61539,0.78359 -3.99585,0.65008 -8.50895,-0.82293 z m 78.66185,27.69277 c -1.22924,-0.18099 -1.7107,-0.53291 -2.04906,-1.49778 -0.24325,-0.69366 -0.29665,-1.40684 -0.11865,-1.58483 0.82764,-0.82764 13.03336,-1.48619 14.82226,-0.79973 3.45299,1.32504 -7.40293,4.65558 -12.65455,3.88234 z m 1.02941,11.49082 c -0.73537,-0.75866 -0.73537,-1.55484 0,-2.15361 0.64265,-0.52328 12.9043,-2.4817 13.267,-2.11899 0.4332,0.43319 -1.91226,1.84473 -5.17363,3.11358 -3.93383,1.53048 -7.2702,2.00827 -8.09337,1.15902 z m -20.32349,3.73178 c -1.07079,-0.43041 -1.34943,-1.12509 -0.62969,-1.56991 0.67597,-0.41778 11.43894,-3.03467 12.48122,-3.03467 2.65019,0 -0.47975,3.71364 -3.8439,4.56074 -2.43376,0.61283 -6.53618,0.63529 -8.00763,0.0438 z m -7.75784,-7.5652 c -0.86839,-0.63498 -0.8692,-0.67464 -0.0324,-1.59925 0.47192,-0.52147 1.61235,-1.19218 2.5343,-1.49047 3.11207,-1.00689 6.06841,-2.7383 8.61802,-5.04724 2.79094,-2.52749 3.95558,-2.82109 5.04139,-1.27088 1.81085,2.58536 0.27613,4.30842 -6.20943,6.97145 -2.98438,1.22541 -8.41389,3.08752 -9.00255,3.08752 -0.0324,0 -0.45955,-0.29301 -0.9493,-0.65113 z m -13.36074,-5.97959 c -1.36289,-0.99657 -0.58123,-2.14267 1.47344,-2.16041 2.29355,-0.0198 5.84103,-1.27265 9.18615,-3.24423 1.51345,-0.89201 5.66398,-4.48147 9.45013,-8.17266 3.71326,-3.62012 6.98745,-6.58204 7.27597,-6.58204 1.1096,0 2.17925,2.68948 1.9827,4.98519 -0.10175,1.18842 -4.48852,5.30509 -8.54333,8.0173 -9.13471,6.11011 -18.0612,9.17784 -20.82506,7.15685 z m 41.51743,-17.40292 c -4.44746,-0.55337 -7.65179,-1.79538 -8.32876,-3.22827 -1.31288,-2.77886 -2.18579,-6.4794 -1.65388,-7.01131 0.59886,-0.59885 1.07267,-0.39689 5.17283,2.20494 4.05499,2.57316 9.06386,3.97648 15.14564,4.2433 l 5.21484,0.22879 3.65322,-1.90642 c 3.97084,-2.07217 4.62395,-2.24833 4.62395,-1.2472 0,1.59314 -5.86059,5.15265 -10.16175,6.17187 -3.09493,0.73339 -9.95152,1.00648 -13.66609,0.5443 z M 252.25862,488.9511 c -0.17068,-0.27617 -0.10811,-0.70437 0.13906,-0.95154 0.24717,-0.24717 4.68752,-2.0643 9.86746,-4.03806 5.17993,-1.97377 10.14554,-3.96402 11.0347,-4.42277 5.33704,-2.75364 13.34105,-8.79183 21.43367,-16.16949 8.53414,-7.78016 8.95864,-8.09641 10.86794,-8.09641 2.30565,0 4.65019,0.84943 4.65019,1.68477 0,2.14146 -5.77114,8.18318 -12.89676,13.50146 -8.05426,6.01137 -27.94712,15.10835 -39.49888,18.06279 -4.14971,1.06132 -5.15891,1.13871 -5.59738,0.42925 z M 482.51897,159.84524 c -16.35259,-22.08123 -40.44274,-45.69192 -63.02857,-61.774111 -9.0361,-6.434138 -10.25177,-7.669719 -8.09979,-8.232475 1.38745,-0.362827 5.65572,1.874169 12.74826,6.681356 13.38352,9.07109 19.33934,13.62094 28.65397,21.8897 14.751,13.09473 34.28664,33.63216 41.20724,43.32037 l 1.87143,2.54731 h -10.08807 z m -114.76109,508.977 c -30.13163,-1.86108 -40.25562,-3.32229 -63.64384,-9.18585 -40.16978,-10.07075 -71.55374,-24.76607 -102.4019,-47.94885 -13.92541,-10.46513 -28.53911,-23.55038 -39.53226,-35.39756 -12.89017,-13.89157 -27.9112,-33.58507 -27.9112,-36.59331 0,-1.10786 1.06842,-1.33224 8.54511,-1.79457 3.81065,-0.23564 14.09942,-0.93417 22.86392,-1.55229 20.00687,-1.411 32.66279,-2.10532 40.6089,-2.22787 4.84272,-0.0747 6.24463,-0.23713 6.41297,-0.7431 0.18394,-0.55286 -2.51133,-0.58662 -18.43782,-0.23095 -26.84238,0.59946 -38.746,0.54846 -40.00542,-0.17139 -3.24277,-1.85344 -1.95087,-3.68637 6.16087,-8.74094 11.99105,-7.47184 14.78945,-10.49168 21.34637,-23.0355 2.24841,-4.30138 5.19203,-9.58744 6.54138,-11.74681 5.07243,-8.1175 6.99189,-10.97846 7.98749,-11.90544 1.25844,-1.17171 5.40995,-1.96824 10.90046,-2.09144 3.9258,-0.0881 4.14333,-0.0372 6.7901,1.58882 3.37495,2.07335 4.81073,4.03584 4.81922,6.58717 0.008,2.54407 0.43288,3.9733 1.17987,3.9733 1.04045,0 9.64218,-9.00095 15.17707,-15.88146 6.71999,-8.35374 12.67052,-14.40014 21.05046,-21.38963 7.86615,-6.56095 11.98943,-10.3345 25.45577,-23.29657 l 9.9822,-9.60841 0.23907,-5.44347 c 0.17764,-4.04472 0.49083,-6.07099 1.21881,-7.88554 1.18923,-2.96422 1.33189,-7.70422 0.27719,-9.21001 -0.3864,-0.55167 -4.35842,-3.75855 -8.82672,-7.12641 -12.49293,-9.41622 -18.47357,-14.7242 -22.46494,-19.93824 -0.70291,-0.91823 -2.26181,-2.23646 -3.46423,-2.92939 -1.20241,-0.69293 -3.01762,-1.92896 -4.03379,-2.74673 -1.01618,-0.81777 -3.4065,-2.28411 -5.31183,-3.25853 l -3.46423,-1.77166 -20.55444,-0.29782 c -23.59517,-0.34187 -32.3538,-1.01717 -42.16451,-3.25092 -5.08325,-1.15738 -6.27526,-1.94962 -18.6373,-12.38673 -17.88505,-15.10012 -18.0658,-15.27543 -17.52074,-16.99276 0.16362,-0.51554 5.95849,-6.43227 12.87748,-13.14826 l 12.57998,-12.2109 13.15299,-0.32735 c 18.44134,-0.45896 35.56575,-0.38965 40.45064,0.16371 4.54698,0.51509 7.17647,0.97904 11.7327,2.0701 4.94407,1.18395 12.75704,1.38055 20.55444,0.51722 13.22831,-1.46464 13.40146,-1.4631 17.44865,0.15486 4.26359,1.70448 4.9918,1.75816 5.82181,0.4291 1.0226,-1.63745 2.83592,-7.37809 2.50864,-7.94191 -0.16608,-0.28611 -1.29216,-1.67606 -2.50241,-3.08877 -3.07586,-3.59046 -8.04999,-11.1382 -9.87447,-14.98353 -0.84375,-1.77831 -1.85507,-4.68826 -2.24737,-6.46657 -1.08499,-4.91824 -2.60443,-15.84533 -2.60725,-18.75001 -0.004,-4.21374 2.42274,-10.02646 7.9319,-18.9985 3.97336,-6.47088 6.26202,-8.83181 10.72663,-11.06537 2.05755,-1.02935 5.50776,-2.95742 7.66713,-4.2846 5.50989,-3.38647 9.58715,-4.91763 13.87814,-5.21174 4.22816,-0.2898 6.99272,0.48436 15.29457,4.28299 2.97981,1.36345 7.34808,3.16502 9.70727,4.0035 5.86455,2.0843 13.29009,5.88584 14.36705,7.35528 1.21908,1.66336 3.10538,9.17728 3.10028,12.34976 -0.002,1.43266 -0.53326,4.89123 -1.17992,7.68571 -2.57208,11.11514 -2.5205,10.7049 -1.79522,14.27627 0.3659,1.80171 0.96693,6.1917 1.33562,9.75554 0.3687,3.56383 0.81909,6.86729 1.00088,7.34101 0.30893,0.80506 0.68004,0.83495 5.68302,0.45775 10.73162,-0.80912 15.02663,-0.14244 25.06298,3.89027 4.21764,1.69469 10.32118,3.31185 12.46836,3.30354 0.84682,-0.003 2.83048,-0.41064 4.40811,-0.90525 12.35006,-3.87191 35.48087,-2.99313 67.57094,2.56715 5.2079,0.90238 10.92388,1.94847 12.70218,2.32463 1.77831,0.37618 5.36813,0.98576 7.9774,1.35463 2.60926,0.36888 7.59775,1.43575 11.08554,2.37084 6.32509,1.69578 6.36642,1.70024 16.04128,1.73151 10.80515,0.0349 12.67398,-0.31612 16.47948,-3.09546 1.09803,-0.80195 3.55079,-2.29716 5.45059,-3.32271 4.63059,-2.49969 4.71762,-2.79285 3.13612,-10.56492 -1.64563,-8.08729 -7.41673,-28.13267 -10.99274,-38.18231 -5.42193,-15.23724 -13.48925,-32.76834 -21.49272,-46.70586 -4.26459,-7.42652 -12.53874,-20.51841 -16.09439,-25.46563 l -2.57281,-3.57971 h 10.08807 l 2.73377,3.81066 c 10.18198,14.1929 16.11216,24.13462 25.00339,41.9172 11.12454,22.24923 17.58545,39.90003 22.90942,62.58711 1.73178,7.37965 2.74202,10.14697 4.1225,11.29266 1.12472,0.93345 4.6939,6.88295 5.83335,9.72368 1.56513,3.90202 2.70133,15.93774 1.87035,19.81248 -0.27627,1.28822 -1.27402,3.94626 -2.21722,5.90677 l -1.71491,3.56456 -0.33441,20.57778 c -0.257,15.8145 -0.54831,22.44886 -1.25847,28.66099 -0.50824,4.44576 -1.01047,9.14299 -1.11608,10.43828 l -0.19202,2.35507 4.89088,2.70202 c 5.80907,3.20927 14.51617,8.43117 24.98342,14.98328 4.19172,2.62386 9.74949,6.09949 12.35061,7.72363 2.60111,1.62414 5.87009,3.47527 7.26442,4.11361 l 2.53513,1.16062 4.40858,-1.20104 c 5.50813,-1.50057 21.81357,-7.05747 28.86896,-9.83856 4.59501,-1.81125 5.77931,-2.09618 8.77606,-2.11148 3.97075,-0.0203 8.21397,1.08259 9.4592,2.45856 0.80855,0.89345 0.80989,0.9741 0.0309,1.83482 -0.44813,0.49516 -2.03923,1.68037 -3.53582,2.6338 -2.72099,1.73347 -3.32737,2.47058 -2.0324,2.47058 0.91405,0 8.64857,-4.03918 11.80523,-6.16502 1.37797,-0.92798 2.86464,-1.68724 3.30367,-1.68724 1.90131,0 2.21171,3.48905 1.05091,11.81346 -1.56754,11.24196 -5.44157,30.53521 -8.52566,42.4595 -4.3119,16.67125 -16.84041,46.0416 -28.07708,65.82039 -11.31774,19.92144 -31.86701,46.1316 -48.00085,61.22406 -24.4539,22.8755 -45.8218,37.95049 -73.5855,51.91437 -22.3524,11.24221 -33.92762,15.44507 -63.04901,22.89247 -18.13063,4.63662 -30.04507,6.67525 -44.41409,7.59937 -22.51767,1.44819 -25.12837,1.53692 -32.2609,1.09641 z m 36.48542,-18.6214 c 0.60052,-0.97165 -10.75742,-27.72321 -14.44612,-34.02517 -2.10645,-3.59878 -3.2557,-4.69362 -7.33673,-6.98939 -3.59667,-2.02328 -14.2312,-10.58446 -24.97265,-20.10386 -4.81715,-4.2691 -9.50646,-8.27029 -10.42069,-8.89153 -1.68037,-1.14184 -3.09695,-1.4713 -3.09695,-0.72029 0,0.22509 2.20257,2.56344 4.89461,5.19635 6.95846,6.80562 13.86079,14.60432 28.35655,32.03907 16.2072,19.49318 18.56078,22.59122 21.29027,28.02443 2.09612,4.17246 3.54191,5.92503 4.88791,5.92503 0.30955,0 0.68926,-0.20457 0.8438,-0.45464 z m 30.8302,-0.29483 c 0.79714,-0.41225 4.06052,-3.27453 7.25195,-6.36065 6.98726,-6.75678 8.04248,-7.63415 19.05267,-15.84152 l 8.63109,-6.43391 16.31137,-0.57369 c 18.65904,-0.65627 28.97212,-1.29065 31.37193,-1.92976 2.65546,-0.70721 5.61943,-3.3192 9.0027,-7.9336 2.94882,-4.02186 8.43563,-10.76148 16.0192,-19.67687 1.79688,-2.11246 4.96777,-5.38484 7.04641,-7.27198 3.54278,-3.21638 6.36203,-7.14438 5.64348,-7.86293 -0.53369,-0.5337 -2.13415,0.78999 -9.60483,7.94383 -13.77172,13.18765 -28.2847,24.94812 -34.85336,28.24313 -3.07833,1.54418 -8.47263,2.37571 -30.53601,4.70714 -14.46796,1.52883 -16.28953,1.994 -20.64343,5.27164 -6.68389,5.03169 -26.20507,23.95674 -27.04633,26.22045 -0.4423,1.19012 -0.22186,2.24819 0.46839,2.24819 0.23948,0 1.08763,-0.33727 1.88477,-0.74947 z M 332.33919,615.20485 c -0.0832,-0.44458 -2.02108,-2.04109 -4.30642,-3.54781 -3.30435,-2.17856 -7.17998,-5.7609 -18.9278,-17.49542 l -14.77265,-14.75593 -5.31989,0.74207 c -2.92595,0.40815 -7.81415,0.95839 -10.86267,1.22276 -16.93941,1.46902 -22.33288,2.21788 -23.61049,3.2782 -1.0523,0.87333 -0.7303,1.70181 0.86204,2.21799 0.82564,0.26764 6.07395,0.81294 11.66291,1.21178 16.65917,1.18884 18.88661,1.71705 25.12651,5.95832 5.47674,3.72257 32.953,19.87841 36.23832,21.30789 2.15528,0.93778 4.09879,0.86827 3.91014,-0.13985 z m 111.16988,-5.49615 c 12.93348,-2.81881 15.96811,-3.39584 25.17342,-4.78668 21.58659,-3.26157 35.99307,-6.37696 38.04099,-8.22635 1.35954,-1.22773 2.83632,-4.49948 6.1252,-13.57008 6.74354,-18.59838 14.52692,-34.89576 21.90489,-45.86595 1.70856,-2.54043 3.94959,-6.30452 4.98007,-8.36462 1.89708,-3.7926 31.97842,-44.6871 37.53791,-51.03145 1.46737,-1.67451 3.64825,-4.48054 4.84641,-6.23561 3.85461,-5.64624 9.41194,-11.44555 10.20653,-10.65096 0.48644,0.48644 -1.28671,4.17987 -7.24021,15.08122 -6.26613,11.47379 -10.16536,19.19337 -10.16536,20.12507 0,0.82942 1.32177,1.18893 2.34933,0.639 1.11159,-0.59491 8.70632,-12.10689 15.67928,-23.7664 5.29365,-8.85159 11.35763,-18.5573 21.62547,-34.61293 3.07652,-4.81067 5.49769,-8.84266 5.38037,-8.95997 -0.33705,-0.33704 -4.1986,2.81059 -9.46834,7.71785 -9.70013,9.03285 -10.53736,9.34824 -14.70484,5.5394 -2.75141,-2.51463 -16.28369,-11.63904 -21.32317,-14.37757 -6.81871,-3.7054 -15.49184,-5.84215 -25.18376,-6.20439 l -6.9388,-0.25934 -1.56522,5.25498 c -2.44764,8.21754 -8.67921,25.564 -11.01412,30.65935 -2.3038,5.02745 -10.96513,21.79096 -14.31913,27.71385 -9.50848,16.79123 -23.28082,35.59347 -36.46781,49.78647 -7.45334,8.02195 -21.84107,22.29242 -27.86009,27.63303 -8.79976,7.80794 -24.86308,19.17578 -25.54262,18.07625 -0.35284,-0.5709 0.0553,-1.00406 3.64795,-3.87179 16.48367,-13.15752 33.25314,-29.29398 45.7765,-44.04852 23.58254,-27.78402 43.39136,-64.16429 54.57554,-100.23176 3.88933,-12.54256 4.04928,-13.85427 1.81913,-14.91822 -0.6989,-0.33342 -5.68739,-1.33115 -11.08554,-2.21717 -5.39816,-0.88602 -10.85411,-1.9373 -12.12433,-2.33617 -3.40141,-1.0681 -10.07507,-4.67371 -14.54977,-7.86086 -2.15937,-1.53804 -5.36065,-3.67312 -7.11397,-4.74463 l -3.18784,-1.94819 -8.3596,4.0346 c -4.59777,2.21903 -10.54206,4.95076 -13.20952,6.0705 -2.66745,1.11975 -6.51275,2.83086 -8.5451,3.80248 -8.58304,4.10333 -17.81489,7.85228 -21.47823,8.72207 -7.426,1.76316 -17.95377,3.16681 -40.61931,5.41572 -4.17649,0.4144 -10.49562,1.20191 -14.04251,1.75002 l -6.44889,0.99657 -0.86907,3.23328 c -2.51922,9.37255 -5.76557,17.59437 -7.60162,19.25208 -1.1926,1.07676 -2.63756,1.58062 -10.38445,3.62106 -3.71529,0.97857 -7.71891,2.23227 -8.89694,2.786 -3.08387,1.4496 -7.67502,5.62747 -26.40727,24.03023 -9.1602,8.99909 -18.09792,17.53457 -19.86159,18.96775 -3.62213,2.94339 -43.05301,26.72472 -44.3112,26.72472 -0.26396,0 -1.20433,0.38461 -2.08972,0.8547 -3.51078,1.864 -16.33342,5.13672 -20.1634,5.14631 -1.79459,0.005 -2.92464,0.40722 -2.92464,1.04228 0,0.72547 9.4256,0.0982 12.70219,-0.84527 3.45021,-0.99352 12.57012,-0.98348 31.63998,0.0348 28.76227,1.53582 39.03987,2.69735 45.035,5.08964 4.52909,1.80729 22.24785,10.07211 31.15044,14.52996 8.35173,4.18202 9.92056,5.49234 14.11876,11.79223 1.35434,2.03235 4.06909,6.70907 6.03278,10.3927 5.82152,10.92042 10.80428,19.54816 12.03535,20.83939 2.35797,2.4732 8.89363,4.93388 21.79539,8.20595 5.89979,1.49627 25.33918,5.48476 30.11072,6.17798 1.74907,0.25412 3.71302,-0.0468 11.77838,-1.8046 z M 211.63652,559.90262 c 8.12939,-0.64632 23.40665,-1.99523 33.94946,-2.99756 10.54282,-1.00234 24.78081,-2.25293 31.63998,-2.77907 20.48818,-1.5716 37.98733,-3.45249 38.73351,-4.16326 0.74435,-0.70903 -1.53157,-1.40667 -13.57819,-4.16212 l -12.05368,-2.75707 -16.48161,0.46069 c -32.8655,0.91866 -54.47067,1.39268 -84.14961,1.84629 -16.63985,0.25431 -33.2162,0.58609 -36.83632,0.73728 -5.99587,0.2504 -6.58204,0.35094 -6.58204,1.12895 0,1.33614 2.51307,1.78247 12.93313,2.29693 10.42232,0.51458 20.63587,1.39041 32.43095,2.78101 7.74943,0.91363 10.06362,1.42804 10.06362,2.237 0,0.68605 -2.64004,2.13441 -7.22631,3.96446 -2.32319,0.92702 -4.60958,1.99821 -5.08087,2.38042 -1.03386,0.83845 0.0247,0.79208 22.23798,-0.97395 z m 337.0001,-7.11913 c 11.82206,-5.68815 24.45854,-12.43256 26.74333,-14.27361 1.14367,-0.92155 5.19721,-4.49772 9.00787,-7.94706 3.81065,-3.44933 10.66983,-9.60641 15.24261,-13.6824 8.2258,-7.33212 11.31649,-10.41199 11.31649,-11.27683 0,-0.24521 -0.69432,-0.44583 -1.54292,-0.44583 -2.54399,0 -10.66143,5.19697 -19.35395,12.39084 -9.42,7.79592 -36.18787,28.34151 -40.5355,31.11289 -3.23742,2.06368 -9.23795,6.85132 -9.23795,7.37068 0,0.7101 0.68735,0.443 8.36002,-3.24868 z M 225.15115,535.52753 c -0.35862,-1.09944 -9.5885,-2.3697 -9.5885,-1.31962 0,0.84342 3.55793,1.85009 6.62053,1.87319 2.32561,0.0176 3.10673,-0.12816 2.96797,-0.55357 z m 9.92723,-4.9944 c 6.02695,-1.22105 13.26994,-3.63639 18.47796,-6.16191 5.32287,-2.58121 24.02932,-13.29041 29.90524,-17.12035 2.41342,-1.57308 5.45165,-3.43306 6.75164,-4.13328 2.79193,-1.50385 6.10787,-4.38335 16.53326,-14.35719 10.68689,-10.22401 29.83332,-30.12857 29.83332,-31.01462 0,-1.34777 -2.0157,-4.34513 -3.10609,-4.6188 -0.58958,-0.14798 -4.49648,0.1 -8.68201,0.551 -8.40094,0.90527 -9.65716,0.72868 -10.19991,-1.4338 -0.41878,-1.66851 0.87507,-2.85644 3.68237,-3.38089 1.22979,-0.22975 2.57054,-0.75228 2.97943,-1.16117 0.68332,-0.68333 0.68296,-0.80392 -0.005,-1.49135 -0.64847,-0.64848 -1.14258,-0.67918 -3.71652,-0.23095 -6.24826,1.08809 -22.56861,0.32581 -25.689,-1.19986 -1.34061,-0.65547 -1.7136,-1.12408 -1.82705,-2.29537 -0.0784,-0.80947 0.18142,-2.09823 0.57737,-2.86392 0.88064,-1.70297 0.93285,-3.28564 0.10838,-3.28564 -2.54794,0 -21.03778,17.54689 -34.31372,32.56378 -7.59378,8.5896 -14.80701,18.43093 -17.65064,24.08158 -4.06001,8.06772 -2.5911,11.86862 4.56949,11.8238 5.22092,-0.0327 15.42619,-2.52094 20.29256,-4.94774 2.48516,-1.23933 9.66988,-3.65868 9.97096,-3.35759 2.02043,2.02043 -18.60212,12.25418 -29.00476,14.39335 -4.13613,0.85055 -9.9567,0.94958 -12.60466,0.21447 -2.53415,-0.70352 -5.52879,-3.78024 -6.23612,-6.40704 -0.94423,-3.50659 0.0549,-7.71803 4.05712,-17.10167 2.12373,-4.97895 2.70602,-6.92077 2.07547,-6.92077 -1.25036,0 -13.65656,12.98405 -17.76918,18.59682 -2.65701,3.62619 -4.60731,5.96109 -4.80994,5.75847 -0.0993,-0.0994 0.3538,-1.93052 1.00698,-4.06928 1.22946,-4.02573 2.00589,-12.06667 1.39874,-14.48575 -0.47284,-1.88396 -3.78947,-5.19147 -6.08479,-6.06805 -3.90385,-1.4909 -8.12208,0.32698 -11.54362,4.97482 -3.67142,4.98727 -8.59706,13.30569 -9.93276,16.77447 -1.31141,3.40568 -5.52579,10.68004 -7.844,13.5394 -1.19825,1.47796 -2.58908,2.59209 -8.69172,6.96258 -1.5585,1.11615 -2.83364,2.31131 -2.83364,2.65591 0,1.66603 11.33998,-0.33739 17.39509,-3.07315 1.56492,-0.70706 3.81584,-2.18015 5.00204,-3.27355 2.45763,-2.26537 7.06153,-9.03668 9.89157,-14.54832 2.18218,-4.24991 3.48286,-5.84698 4.58964,-5.63551 0.66509,0.12708 0.79791,1.15236 1.00563,7.76256 0.278,8.84715 0.20206,8.6358 5.27692,14.68438 5.047,6.01537 9.49482,9.63884 12.65299,10.3079 2.45715,0.52054 9.31936,0.044 14.51058,-1.00777 z m -37.29879,-0.67972 c 9.24493,-0.32276 11.31649,-0.56609 11.31649,-1.32924 0,-0.83633 -4.19238,-6.27938 -7.63684,-9.91506 l -2.89552,-3.05627 -2.23966,1.88716 c -2.85063,2.40198 -10.78475,11.23056 -10.78475,12.00059 0,0.85313 0.91628,1.12262 3.00233,0.88303 1.01618,-0.11671 5.17325,-0.32831 9.23795,-0.47021 z m 151.50239,-76.20276 c 8.15057,-1.84786 10.67739,-2.82587 11.7028,-4.52959 2.29741,-3.81715 4.83749,-13.627 7.19771,-27.7977 2.32397,-13.95302 2.58849,-20.08633 0.81916,-18.99282 -0.26189,0.16186 -0.70011,1.33855 -0.97383,2.61488 -0.59194,2.76012 -1.88322,5.42243 -3.21349,6.6255 -0.85423,0.77253 -0.99523,0.78803 -1.24511,0.13684 -0.15499,-0.40389 0.01,-3.78259 0.36634,-7.50822 l 0.64814,-6.77386 -2.98773,0.3061 c -5.85189,0.59954 -7.40939,1.12519 -8.52358,2.87664 -0.79817,1.25468 -1.66974,1.82993 -4.02136,2.65416 -1.65128,0.57877 -5.28873,1.99171 -8.08321,3.13987 -5.5086,2.26331 -14.15594,4.89894 -24.71151,7.53182 -13.2093,3.29481 -21.43503,5.80253 -23.61766,7.20013 -2.55028,1.63303 -6.86758,6.0798 -6.86758,7.07353 0,0.38733 0.40772,0.92244 0.90605,1.18914 1.26341,0.67616 14.30816,4.16658 15.57175,4.16658 0.75332,0 1.37292,-0.59766 2.27452,-2.19401 2.16615,-3.83534 3.41849,-5.65825 3.88721,-5.65825 0.94662,0 0.37173,1.89121 -2.26151,7.43955 -3.38931,7.14143 -4.0438,9.08138 -3.30917,9.80866 0.97367,0.96392 15.52102,0.15539 20.49811,-1.13926 2.14865,-0.55891 2.63224,-1.53209 6.76455,-13.6129 1.54351,-4.51244 3.02395,-8.46661 3.28988,-8.78702 0.79579,-0.95887 1.80164,-0.19405 1.80164,1.36991 0,1.74401 -4.13404,14.02855 -7.40733,22.01127 -1.30212,3.17554 -2.40258,6.0855 -2.44548,6.46656 -0.0512,0.45452 0.39867,0.73902 1.30771,0.82706 1.73262,0.16783 11.96304,-2.38675 13.44374,-3.35694 1.63691,-1.07254 5.32324,-9.0849 8.46467,-18.39825 2.94073,-8.71832 4.39784,-11.86659 5.49219,-11.86659 1.11412,0 0.34015,4.17098 -2.15321,11.60385 -2.55449,7.61509 -8.02604,21.57207 -9.36856,23.89758 -0.69148,1.19778 -0.77434,1.6985 -0.3631,2.19402 0.71203,0.85794 1.20575,0.82199 7.11725,-0.51824 z M 604.62211,438.2981 c 2.32372,-1.96884 6.4122,-5.53094 9.08553,-7.91578 6.85927,-6.11906 9.12977,-7.7425 12.27021,-8.77321 1.51369,-0.4968 3.89532,-1.32249 5.29256,-1.83488 1.39724,-0.51239 3.1082,-1.05197 3.80221,-1.19908 0.69395,-0.14711 2.00708,-0.92188 2.91803,-1.72172 1.93942,-1.70285 1.90002,-3.12848 -0.13681,-4.9445 -1.14135,-1.01766 -1.49553,-1.07936 -4.71704,-0.82168 -4.68941,0.37509 -13.69969,2.64165 -18.42033,4.6337 -5.10517,2.1543 -12.70837,6.48932 -14.978,8.5398 -1.95664,1.76772 -1.95784,1.7761 -0.98218,6.88389 0.25391,1.32928 0.18624,1.47089 -0.57372,1.20001 -0.47391,-0.16891 -1.24768,-0.63926 -1.71951,-1.04522 -0.7916,-0.68107 -0.83257,-1.24566 -0.53016,-7.30467 0.30878,-6.18552 0.27122,-6.65805 -0.64675,-8.14342 -1.18334,-1.91465 -5.6641,-5.03748 -13.66972,-9.527 -3.30257,-1.85206 -7.74711,-4.49662 -9.87677,-5.87679 -5.04257,-3.26795 -14.97242,-8.70662 -17.98947,-9.85301 l -2.37297,-0.90166 -0.74738,1.14065 c -0.93319,1.42422 -1.69182,4.68948 -1.34408,5.78511 0.1439,0.45338 1.76118,1.86351 3.59397,3.13364 3.74191,2.59316 9.71815,8.53467 10.2379,10.17842 0.63484,2.00769 -2.86052,4.64933 -8.63768,6.52799 -1.71479,0.55762 -3.11781,1.10599 -3.11781,1.21858 0,0.43987 2.56077,1.12523 10.20768,2.73195 10.8737,2.28471 9.9416,1.7792 31.59405,17.13493 3.30257,2.34215 6.28111,4.27538 6.61899,4.29606 0.33788,0.0207 2.51554,-1.57327 4.83925,-3.54211 z m -305.59544,0.0435 c 0.41771,-1.08851 -1.46956,-2.46847 -3.37597,-2.46847 -1.32561,0 -1.56548,0.16278 -1.56548,1.06236 0,1.52554 0.85567,2.17092 2.87826,2.17092 1.22097,0 1.86071,-0.23714 2.06319,-0.76479 z m 123.69701,-17.9063 c 9.78469,-1.23409 11.6171,-1.85729 30.71619,-10.44652 11.61943,-5.22549 27.17555,-13.1497 37.05708,-18.8767 4.50366,-2.61018 8.42511,-4.66689 8.71432,-4.57049 0.29235,0.0974 -0.51532,1.47259 -1.81898,3.09698 -2.80147,3.49069 -3.48017,5.32193 -3.20449,8.64621 0.2497,3.01106 1.6173,4.91633 5.83831,8.13368 4.77477,3.63942 12.97558,5.42835 24.90724,5.43327 7.22148,0.003 9.17088,-0.45457 10.48563,-2.46114 0.66169,-1.00986 2.54813,-9.77577 2.54813,-11.84063 0,-0.50612 -1.57591,-1.47791 -4.80731,-2.96443 -5.39767,-2.48305 -7.23581,-3.97928 -6.28946,-5.11956 0.81385,-0.98064 1.03725,-0.9362 5.51163,1.09639 5.92478,2.69145 5.95181,2.69503 6.70746,0.88651 0.76842,-1.83908 1.42464,-8.60872 0.99892,-10.30493 -0.21433,-0.85394 -0.8851,-1.45534 -2.29938,-2.06158 -1.09823,-0.47075 -4.62662,-2.45025 -7.84088,-4.39889 -11.12842,-6.74659 -20.77405,-10.57716 -34.2728,-13.6108 l -6.38303,-1.43449 -4.41569,4.54227 c -4.92469,5.06585 -8.04932,7.16011 -14.26358,9.56006 -8.69991,3.35991 -30.99469,8.20365 -41.69564,9.05875 -10.9087,0.8717 -22.37051,0.007 -19.70167,-1.48688 0.35102,-0.19645 4.78106,-0.88362 9.8445,-1.52706 13.7333,-1.74515 20.40704,-3.63557 27.25076,-7.71912 6.6084,-3.94314 8.60486,-6.32796 7.76092,-9.27061 -0.64879,-2.26219 -3.79203,-3.76057 -7.09856,-3.38388 -1.39724,0.15917 -7.425,0.58524 -13.39502,0.9468 -14.96961,0.90661 -16.55534,1.0677 -22.86393,2.32265 -13.05309,2.59661 -36.15243,11.70748 -40.08221,15.8093 l -1.24232,1.2967 1.63713,6.91117 c 0.90042,3.80115 1.82814,8.1583 2.0616,9.68256 0.57844,3.77664 0.54985,11.76171 -0.0583,16.28057 -0.5963,4.43086 -0.28469,5.28073 2.20622,6.01715 2.19392,0.64862 9.34347,1.85555 14.23059,2.40229 5.32796,0.59606 26.7017,0.18114 33.25662,-0.6456 z m -105.31263,-9.9988 c 10.41579,-2.584 19.56136,-5.01076 20.32349,-5.39281 0.76213,-0.38204 2.3016,-1.4368 3.42104,-2.3439 l 2.03535,-1.64928 -1.8044,-1.56849 c -1.92865,-1.6765 -1.75998,-1.65951 -7.46264,-0.75159 -1.63512,0.26033 -1.96307,0.18663 -1.96307,-0.44112 0,-1.01045 -0.62966,-0.95578 -4.61897,0.40108 -1.8673,0.6351 -3.79067,1.15474 -4.27415,1.15474 -0.48349,0 -4.03256,1.03179 -7.88683,2.29287 -7.97824,2.6104 -12.27505,3.69512 -14.67625,3.70497 -3.50588,0.0144 -6.23853,3.34725 -5.6863,6.93529 0.28731,1.86675 1.30917,2.83681 2.69035,2.55396 0.53052,-0.10865 9.48659,-2.31172 19.90238,-4.89572 z m 235.66374,-2.09945 c 1.63935,-2.24194 -0.71115,-6.41237 -3.43693,-6.09807 -1.53304,0.17678 -2.24135,1.47483 -2.70185,4.95143 l -0.33053,2.49536 2.93624,-0.26625 c 2.05005,-0.18589 3.11637,-0.51259 3.53307,-1.08247 z m -243.2288,-7.74387 c 7.303,-1.85372 9.59011,-3.20124 6.29484,-3.7088 -0.82564,-0.12716 -4.84912,-0.35925 -8.94107,-0.51575 -6.52982,-0.24974 -7.53273,-0.19173 -8.19869,0.47423 -0.88408,0.88408 -1.00823,3.49185 -0.20449,4.29558 0.91142,0.91143 6.37222,0.64195 11.04941,-0.54526 z m 26.96475,-5.30397 c 2.95933,-1.34617 4.06624,-3.31754 1.50131,-2.67378 -1.36293,0.34207 -4.9958,3.49264 -4.04174,3.50515 0.38106,0.005 1.52426,-0.36912 2.54043,-0.83137 z m -11.51271,-0.75224 c 7.3882,-2.78091 15.43885,-9.13974 22.22663,-17.55577 4.75922,-5.90084 5.6174,-8.37038 4.13835,-11.9087 -1.03343,-2.47228 -1.72559,-2.7689 -6.31239,-2.70515 -3.12797,0.0435 -4.15185,-0.0904 -4.15185,-0.54266 0,-0.3302 1.69073,-3.39462 3.75717,-6.8098 2.06644,-3.41519 4.66236,-7.71855 5.76871,-9.56302 1.10634,-1.84446 4.40335,-7.943 7.32668,-13.5523 2.92334,-5.60931 5.72439,-10.77345 6.22455,-11.47587 0.50017,-0.70242 1.16623,-2.29447 1.48013,-3.5379 0.31391,-1.24342 0.7623,-2.52058 0.99644,-2.83813 0.79171,-1.07379 4.58087,-0.58616 13.20241,1.69903 4.72363,1.25203 10.25124,2.59838 12.28359,2.99188 8.84959,1.71347 21.51972,2.49392 27.71385,1.7071 8.40291,-1.06739 23.07698,-1.92339 40.41603,-2.35765 17.15847,-0.42974 18.01829,-0.49474 24.48057,-1.85059 3.68363,-0.77286 9.76961,-2.02258 13.52439,-2.77714 7.78418,-1.56432 17.66046,-4.62921 19.44797,-6.03526 0.84558,-0.66513 1.21018,-1.39062 1.21513,-2.4179 0.01,-2.05001 0.59337,-2.80369 1.91395,-2.47224 1.48039,0.37155 5.34093,3.30014 10.09102,7.655 7.16887,6.57238 10.14037,6.90801 9.2073,1.03994 -0.57051,-3.58797 -1.23496,-5.33027 -2.76886,-7.26043 -1.67812,-2.11163 -1.74511,-3.62069 -0.20553,-4.62947 0.63511,-0.41613 1.15474,-1.01851 1.15474,-1.3386 0,-0.59811 -1.95333,-1.15391 -4.09934,-1.16643 -2.11771,-0.0123 -2.56197,-0.58599 -1.71793,-2.21818 0.40502,-0.78323 0.7364,-1.5383 0.7364,-1.67794 0,-0.72437 -1.49549,-0.0199 -4.30344,2.02721 -3.66495,2.67189 -4.99884,3.00987 -14.63436,3.70807 -7.50019,0.54347 -7.78627,0.51084 -19.9269,-2.27255 -8.79043,-2.01531 -34.01062,-6.44585 -34.93608,-6.13736 -0.31059,0.10353 -0.56472,0.86767 -0.56472,1.69808 0,2.12313 -1.59691,4.24504 -5.04418,6.70252 -1.6311,1.16278 -3.04675,2.35746 -3.14587,2.65484 -0.28172,0.84513 1.20044,1.40669 5.91182,2.2399 6.04996,1.06994 11.38123,0.95124 20.46464,-0.45563 4.28655,-0.66392 8.199,-1.0785 8.69432,-0.92129 0.86012,0.273 0.86428,0.32595 0.0927,1.17853 -0.98357,1.08684 -4.00218,1.98563 -10.11417,3.01152 -8.13222,1.36497 -24.20667,0.80639 -34.84325,-1.2108 -8.01042,-1.51915 -8.0154,-2.21418 -0.03,-4.18766 7.26799,-1.79619 12.93313,-5.31261 12.93313,-8.02775 0,-1.9364 -0.74518,-2.88978 -2.88159,-3.68666 -3.07596,-1.14734 -7.69045,-1.66273 -17.44189,-1.94809 -15.77414,-0.4616 -24.40421,1.6986 -27.02381,6.76435 -0.37201,0.71938 -0.85934,2.9433 -1.08296,4.94204 -0.60822,5.4364 -2.37127,8.05775 -5.85959,8.71216 -2.33514,0.43807 -2.68452,-0.0767 -1.36749,-2.0149 2.02135,-2.97468 1.34996,-6.73017 -2.1623,-12.09522 -1.22855,-1.87663 -2.03919,-2.52627 -4.55731,-3.65222 -3.98546,-1.78204 -18.76201,-6.84187 -22.59535,-7.73717 -3.50408,-0.81839 -13.96189,-0.89198 -16.83454,-0.11845 -2.8692,0.77259 -3.99754,1.82004 -6.48463,6.01971 -3.55052,5.99537 -3.7783,6.15598 -10.76715,7.59167 l -1.0438,0.21442 0.0505,12.0458 c 0.05,11.92611 -0.17212,13.85467 -1.44877,12.57802 -0.81368,-0.81367 -3.12693,-6.89521 -5.31804,-13.98108 -2.22971,-7.21073 -3.70939,-10.63919 -4.82208,-11.17292 -0.38106,-0.18278 -1.67675,-0.67827 -2.8793,-1.10107 -2.24084,-0.78787 -4.4672,-2.27809 -4.04201,-2.70554 0.13095,-0.13165 1.68985,-0.0524 3.46423,0.17607 4.19572,0.5403 15.64684,0.54247 17.97111,0.003 2.66558,-0.61822 4.02824,-1.81275 5.57852,-4.8902 l 1.38569,-2.75075 v -9.007 c 0,-6.716 -0.21045,-10.12313 -0.82737,-13.39503 -0.73496,-3.89793 -0.7549,-4.64597 -0.17853,-6.69751 1.80791,-6.43506 3.08444,-11.50443 3.08444,-12.24887 0,-0.77992 -0.15019,-0.79002 -2.42497,-0.16303 -1.33372,0.36761 -5.95847,0.85632 -10.27722,1.08603 -4.31874,0.2297 -8.63619,0.6486 -9.59432,0.9309 -0.95814,0.2823 -3.01094,1.64546 -4.56178,3.02924 -1.56152,1.39333 -3.25744,2.51223 -3.8007,2.50758 -0.53954,-0.005 -1.89565,-0.62819 -3.01356,-1.3857 -2.17624,-1.47463 -5.36035,-1.88281 -6.42016,-0.82301 -0.35651,0.35652 -0.5568,2.21053 -0.56135,5.19635 -0.004,2.55314 -0.18531,4.92335 -0.40316,5.26713 -0.63117,0.99607 -2.17016,-0.11271 -3.10853,-2.23956 -0.44885,-1.01735 -0.96436,-1.84973 -1.14557,-1.84973 -0.48032,0 -3.18792,4.20326 -3.18792,4.9489 0,0.3484 -0.93155,1.62935 -2.07011,2.84656 -3.40533,3.64058 -3.68443,4.68451 -3.55899,13.31207 0.13467,9.26261 -0.33865,11.72044 -4.04753,21.0176 -1.53703,3.85293 -2.79461,7.47801 -2.79461,8.05573 0,0.66573 0.61826,1.52275 1.68831,2.34029 3.68648,2.81656 4.93557,4.13986 4.63849,4.91405 -0.16123,0.42014 -0.63236,0.76389 -1.04697,0.76389 -0.4146,0 -4.28866,-1.81872 -8.609,-4.04161 l -7.85518,-4.0416 h -8.38022 c -9.11112,0 -10.45877,0.29665 -10.45877,2.30223 0,0.75097 0.5655,1.5365 1.73212,2.40609 2.13205,1.5892 2.50659,2.09232 1.96258,2.63634 -0.84239,0.84238 -13.67444,-3.38016 -21.34086,-7.02247 -7.60314,-3.61225 -7.16232,-3.5555 -27.61979,-3.55519 -10.03473,1.5e-4 -22.32254,0.17772 -27.30626,0.3946 l -9.06131,0.39431 -10.33839,9.59197 c -5.68611,5.27559 -11.05026,10.34176 -11.92033,11.25817 -1.5748,1.65868 -1.57792,1.6707 -0.69284,2.66362 1.25217,1.40475 20.69254,17.89028 24.51338,20.78748 4.08223,3.09539 6.99269,4.35947 12.02609,5.2232 11.61388,1.99293 42.19586,3.26225 50.26256,2.08617 6.59357,-0.9613 8.08907,-0.82049 11.17416,1.05209 11.55872,7.01592 15.54903,9.12511 16.14188,8.53225 0.44467,-0.44466 -1.52756,-1.93258 -5.02948,-3.79443 -2.76126,-1.46807 -3.11781,-1.81222 -3.11781,-3.00935 0,-1.68081 0.0588,-1.69446 8.96384,-2.07972 3.78692,-0.16383 7.17333,-0.4084 7.52536,-0.54348 1.22105,-0.46856 0.32526,-1.2962 -3.4371,-3.17558 -5.52552,-2.76013 -13.80616,-5.423 -25.06144,-8.05922 -5.46194,-1.2793 -10.65828,-2.55444 -11.54744,-2.83365 -1.46468,-0.45992 -6.42922,-3.53418 -18.93779,-11.72712 -2.41342,-1.58075 -5.94694,-4.11555 -7.85226,-5.63288 -5.20328,-4.14371 -5.75882,-4.34758 -13.15973,-4.82922 -7.10168,-0.46216 -8.0125,-0.62384 -7.3344,-1.30195 0.61548,-0.61547 12.05395,-1.58467 14.12247,-1.19661 1.03862,0.19485 4.35371,2.16701 8.65585,5.14941 10.33688,7.1659 18.84992,12.81909 21.8749,14.52628 2.47151,1.39484 3.13865,1.54356 8.54508,1.9049 14.84501,0.99219 28.82146,2.73371 31.00624,3.86351 1.80143,0.93155 6.56888,5.37036 9.34503,8.70082 4.36835,5.24058 2.68928,7.25706 -6.79073,8.15529 -2.66911,0.25291 -5.28768,0.69249 -5.81903,0.97686 -0.93492,0.50036 -0.90478,0.57952 0.93409,2.45319 1.0451,1.06488 1.90019,2.25964 1.90019,2.65502 0,0.39538 -0.87532,1.58552 -1.94514,2.64476 l -1.94515,1.9259 1.78027,1.49482 c 3.84075,3.22495 10.5734,8.09759 14.97314,10.83656 5.17125,3.21926 11.64819,6.59374 12.65594,6.59374 0.36451,0 2.72225,1.0194 5.23942,2.26534 4.32475,2.14064 6.0456,2.66404 14.58566,4.4363 1.94832,0.40433 3.79249,1.03647 4.09815,1.40478 0.82263,0.9912 3.26606,0.81597 6.71298,-0.48145 z m 215.738,-19.64323 c 1.24073,-3.78681 1.67239,-10.65132 1.88738,-30.01442 0.15625,-14.07168 0.0676,-20.66955 -0.29577,-22.01813 -0.54762,-2.03228 -0.76388,-2.18567 -6.63814,-4.70823 -1.21472,-0.52163 -3.66237,-1.92381 -5.43923,-3.11596 l -3.23066,-2.16753 -4.72252,0.29582 c -7.85003,0.49173 -33.82381,5.02489 -40.28863,7.03151 -1.81584,0.56363 -6.30795,0.80443 -21.01633,1.12661 -22.1804,0.48586 -34.58432,1.40396 -59.81573,4.42737 -10.8254,1.29718 -11.24657,1.28373 -24.16619,-0.77221 -4.65393,-0.74059 -8.91493,-1.34613 -9.4689,-1.34564 -0.68739,4.6e-4 -1.47246,0.69731 -2.47233,2.19401 -1.77752,2.66078 -13.65913,24.63812 -13.67145,25.288 -0.005,0.25404 0.7138,1.70902 1.59693,3.23328 0.88313,1.52427 2.92503,5.22758 4.53756,8.22959 3.74382,6.9698 4.19704,7.25505 8.59514,5.40964 1.74807,-0.73348 11.41607,-3.84254 21.48445,-6.90904 l 18.30614,-5.57544 18.87661,0.0258 c 10.38213,0.0142 28.43789,0.20913 40.1239,0.43316 21.95535,0.4209 24.60632,0.64154 33.47242,2.78605 6.00413,1.45226 20.822,6.33411 22.75482,7.49673 0.94784,0.57014 3.75387,2.27702 6.23562,3.79308 7.82972,4.78302 11.41873,6.73524 12.13359,6.59997 0.38106,-0.0721 0.93065,-0.85693 1.22132,-1.74405 z m 5.43684,-82.75473 c 0.86568,-1.23593 0.23544,-2.22549 -1.4174,-2.22549 -1.33802,0 -1.8048,0.96207 -1.103,2.27339 0.66327,1.23934 1.63168,1.22094 2.5204,-0.0479 z"
     inkscape:connector-curvature="0"
     inkscape:label="Archer" />
  <path
     style="display:inline;fill:#484bbb;stroke-width:0.22144026"
     d="m 105.34836,191.9669 c -0.44665,-0.44959 -0.82593,-3.22299 -0.82593,-6.0432 v -2.33825 l 0.60301,0.0659 c 0.69436,0.0828 0.80129,0.49913 1.0555,4.21944 0.18796,2.64109 0.37346,2.95892 1.80221,2.95892 1.03665,0 1.06585,0.0159 1.06585,0.6656 v 0.66549 l -1.68539,0.0659 c -1.262,0.041 -1.76883,-0.0159 -2.01284,-0.26423 z m -18.441693,-0.41146 c -0.125038,-0.14661 -0.298651,-0.55628 -0.383556,-0.89412 -0.187967,-0.75989 -0.694361,-1.04737 -1.839768,-1.04737 -0.72807,0 -0.963642,0.12591 -1.35369,0.66728 -0.279544,0.39485 -0.667142,0.6655 -0.953318,0.66299 -1.168024,-0.01 -1.130483,-0.22673 0.723969,-4.11499 0.982507,-2.0589 1.946169,-3.92295 2.14493,-4.14345 0.9262,-1.03059 2.276489,0.12591 2.27828,1.94565 3.6e-4,0.4975 0.08282,1.44609 0.208913,2.11006 0.104142,0.66306 0.271582,2.08221 0.350466,3.15061 l 0.146355,1.94352 h -0.544605 c -0.300211,0 -0.649087,-0.12578 -0.774125,-0.27891 z m -0.817748,-4.60481 c 0,-1.34325 -0.546225,-1.46918 -1.09097,-0.25433 -0.459039,1.0262 -0.310734,1.41256 0.505143,1.31807 0.538073,-0.0659 0.585767,-0.1472 0.585767,-1.06419 z m 30.236981,3.98463 c -0.0828,-0.12591 -0.041,-0.70283 0.0828,-1.27815 0.12505,-0.57532 0.33998,-2.39403 0.48376,-4.04332 0.29362,-3.36485 0.53805,-3.99826 1.54143,-3.99826 0.52985,0 0.76755,0.18919 1.24737,0.94453 0.7511,1.19634 3.38688,6.76498 3.38688,7.15406 0,0.16797 -0.31114,0.33778 -0.69029,0.39488 -0.59641,0.0828 -0.74859,0.001 -1.12638,-0.63987 -0.47549,-0.81041 -1.13471,-0.95495 -2.30488,-0.50814 -0.72393,0.27731 -0.94909,0.57693 -0.95324,1.26967 -0.002,0.68053 -1.33503,1.24461 -1.66457,0.70536 z m 3.29364,-4.04473 c 0.28101,-0.44938 -0.39238,-2.02323 -0.80707,-1.88685 -0.36954,0.12578 -0.47547,1.6728 -0.14634,2.07791 0.31503,0.38007 0.63179,0.31699 0.94909,-0.18887 z m 6.46286,1.88894 c -0.38996,-0.65052 -2.31633,-7.59606 -2.21524,-7.98498 0.18777,-0.71607 1.52277,-1.28441 3.02455,-1.28662 1.17645,-0.002 1.34339,0.0659 1.9316,0.72193 0.52157,0.58769 0.64412,0.92763 0.64412,1.79446 0,0.85213 0.10454,1.17332 0.55041,1.58887 0.30843,0.29154 0.76755,1.19628 1.04086,2.05055 0.52973,1.65382 0.4376,1.93716 -0.62774,1.9434 -0.37499,0.002 -0.54872,-0.2365 -0.84892,-1.16269 -0.48621,-1.50059 -0.68197,-1.72322 -1.52066,-1.71888 -1.29115,0.01 -1.38707,0.21193 -0.92193,2.01488 0.40063,1.55726 0.40229,1.60977 0.002,1.90143 -0.45245,0.33345 -0.90732,0.39069 -1.05959,0.12591 z m 1.38923,-5.87277 c 0.24837,-0.26642 0.45083,-0.59438 0.45083,-0.72839 0,-0.47432 -0.69432,-1.22989 -1.1305,-1.22989 -1.19108,0 -1.65407,0.9444 -0.95324,1.9498 0.43601,0.62742 1.05753,0.62997 1.63532,0.01 z m -60.701323,3.48238 c -0.222888,-0.27051 -0.208893,-0.51815 0.08282,-1.28437 0.550377,-1.45029 0.475514,-2.08418 -0.292168,-2.48339 -1.003234,-0.52229 -1.249419,-0.42214 -1.758383,0.71604 -0.85732,1.91832 -1.095042,2.1162 -1.860574,1.55318 -0.374993,-0.27744 -0.321647,-0.48668 0.928151,-3.66081 1.554051,-3.94015 1.670827,-4.18192 2.132857,-4.36034 0.437702,-0.16796 2.669508,0.60674 3.257146,1.13128 1.128472,1.01169 1.190961,2.6645 0.145554,3.81758 -0.506793,0.56036 -0.607154,0.8311 -0.501001,1.36841 0.187766,0.90674 -0.911517,3.53887 -1.468485,3.53887 -0.214555,0 -0.513366,-0.14661 -0.665572,-0.33619 z m 1.654111,-6.20894 c 0.187967,-0.51816 0.146344,-0.67383 -0.300251,-1.03061 -0.980377,-0.79961 -1.808468,-0.38006 -1.868976,0.94672 -0.02351,0.58775 0.06592,0.73837 0.519157,0.8584 0.797152,0.21025 1.403715,-0.0828 1.652021,-0.77237 z m 43.035942,5.35351 c 0.0828,-0.23512 -0.0659,-0.72424 -0.30842,-1.12907 -0.36958,-0.60272 -0.39406,-0.77904 -0.14635,-1.11035 0.16686,-0.2159 0.46729,-0.35658 0.6902,-0.31468 0.94287,0.18907 0.99505,1.42288 0.10414,2.43928 -0.36684,0.41969 -0.43599,0.44285 -0.33143,0.10515 z m 23.79885,-1.49852 c -1.17847,-0.58781 -1.71043,-1.25931 -2.17989,-2.75777 -0.32165,-1.02414 -0.33143,-1.31179 -0.0828,-2.23228 0.32988,-1.18362 1.26823,-2.38465 2.27462,-2.90785 0.61949,-0.32363 0.69022,-0.31858 0.96163,0.0659 0.42778,0.58781 0.37929,0.72847 -0.5775,1.66446 -1.44973,1.41459 -1.47691,3.2032 -0.0659,4.4485 0.7799,0.6886 0.83433,0.70106 2.3908,0.56858 1.32449,-0.10475 1.6166,-0.0836 1.72499,0.21208 0.23514,0.61665 0.14636,0.77233 -0.63424,1.09974 -1.10764,0.4661 -2.71208,0.4031 -3.81865,-0.14661 z m -76.282394,-0.91719 c -0.410494,-0.30207 -0.39652,-0.34841 1.38711,-4.27767 0.104542,-0.24337 0.548726,-1.21938 0.972095,-2.16583 0.779906,-1.74416 1.113757,-2.0065 1.898125,-1.50692 0.283936,0.18919 0.273072,0.35851 -0.08282,1.38526 -0.686138,1.98553 -3.093778,6.72711 -3.449125,6.79278 -0.187967,0.041 -0.510895,-0.0659 -0.728091,-0.22672 z m -5.525694,-3.11492 c -0.375043,-0.27466 -0.300271,-0.49328 1.199443,-3.48553 l 1.597694,-3.19164 -0.588218,-0.50831 c -0.650687,-0.56448 -0.742865,-1.01165 -0.283916,-1.3957 0.238082,-0.18887 0.746947,-0.0235 2.313041,0.79962 1.105505,0.57943 2.062935,1.19627 2.129045,1.37054 0.06592,0.16797 -0.04101,0.49095 -0.22927,0.70534 -0.289827,0.32286 -0.456588,0.34595 -0.994941,0.14661 -0.842745,-0.31858 -0.855249,-0.30441 -2.64052,3.00949 -0.807054,1.49865 -1.610318,2.75443 -1.785561,2.78825 -0.16686,0.0414 -0.498531,-0.0659 -0.717357,-0.23266 z M 155.12337,36.305391 c -0.37928,-0.38163 -0.3341,-0.91716 0.28778,-3.24792 0.88436,-3.32074 0.80953,-3.37532 -1.43723,-1.05146 -1.56858,1.62241 -1.60812,1.64755 -2.13087,1.30132 -0.29218,-0.18919 -0.50511,-0.4346 -0.46977,-0.53723 0.29638,-0.86476 5.41517,-6.41688 5.91644,-6.41688 0.20892,0 0.55284,0.21026 0.77825,0.45366 0.44258,0.49092 0.43599,0.54137 -0.47386,4.04091 -0.21454,0.82279 -0.31111,1.57201 -0.21726,1.66651 0.10415,0.0828 0.83222,-0.55624 1.64159,-1.4441 0.80951,-0.88774 1.63111,-1.614 1.82927,-1.6098 0.45907,0.01 0.9387,0.58121 0.79058,0.94662 -0.14636,0.3715 -4.25562,5.28146 -4.83218,5.77807 -0.52161,0.44949 -1.30157,0.50579 -1.6833,0.12589 z M 47.681354,29.907621 c -0.882287,-0.27745 -2.24417,-1.43356 -2.671909,-2.26532 -0.819408,-1.59299 -0.233681,-4.11794 1.245157,-5.36942 0.782397,-0.66305 1.147298,-0.72428 1.531114,-0.25967 0.311124,0.37578 0.146354,0.69043 -0.696811,1.41256 -0.775775,0.65723 -1.109616,1.86377 -0.844736,3.04053 0.235141,1.04097 0.986669,1.76724 2.21146,2.13678 0.732152,0.22042 1.030372,0.21071 1.800075,-0.10495 0.959591,-0.38011 1.510188,-0.2227 1.510188,0.42798 0,0.81444 -2.612142,1.43971 -4.083938,0.97597 z m 98.015686,-0.55626 c -1.63113,-0.5811 -2.97776,-2.5397 -2.97776,-4.33102 0,-3.44915 3.48861,-5.69206 6.54091,-4.20516 1.91489,0.93186 2.86825,2.72693 2.6778,5.03857 -0.23368,2.84315 -3.28149,4.55097 -6.24095,3.49761 z m 2.93595,-1.53218 c 2.11733,-1.10823 2.50784,-3.41445 0.83848,-4.95666 -0.42532,-0.39238 -1.02836,-0.77891 -1.33704,-0.8584 -1.49559,-0.37734 -3.23334,0.63579 -3.68281,2.14469 -0.73221,2.45593 1.97111,4.8268 4.18113,3.66931 z m -93.547553,-1.12074 c -0.423648,-0.51244 -0.187967,-1.11241 0.471403,-1.19005 0.436032,-0.041 0.623579,0.041 0.733812,0.39899 0.271313,0.85838 -0.650717,1.46286 -1.203544,0.79136 z m 83.008803,-1.84287 -0.47799,-0.3884 0.6902,-1.52994 c 0.77171,-1.71277 0.76345,-1.74417 -0.75519,-2.54716 -1.13473,-0.60024 -1.46425,-0.39905 -2.30554,1.40819 -0.37112,0.79551 -0.76754,1.44825 -0.88028,1.44825 -0.10414,0 -0.43187,-0.18888 -0.70257,-0.40313 l -0.49441,-0.40307 1.83135,-3.92803 c 1.00755,-2.16021 1.94407,-3.92789 2.08384,-3.92789 0.14635,0 0.44423,0.14662 0.68036,0.31308 0.41705,0.3064 0.41542,0.33336 -0.0828,1.49859 -0.75933,1.73567 -0.72558,1.97293 0.36958,2.58698 1.31416,0.7367 1.79595,0.55382 2.55728,-0.96119 0.54624,-1.08722 0.69845,-1.23412 1.20986,-1.17544 0.39403,0.041 0.60463,0.21858 0.64904,0.52898 0.0828,0.52653 -3.3483,7.86834 -3.66911,7.86834 -0.12505,0 -0.42531,-0.16784 -0.68857,-0.38824 z m -78.461365,-0.96754 c -0.441784,-0.63577 -0.323228,-0.79964 0.807034,-1.10183 1.107556,-0.29625 1.923173,-0.9949 1.923173,-1.64769 0,-0.80781 -0.433551,-1.0052 -2.202447,-1.0052 -1.896135,0 -2.528116,-0.30055 -2.983294,-1.41688 -0.634252,-1.55521 0.208913,-3.13202 2.050451,-3.83978 0.944926,-0.36324 0.997052,-0.36093 1.28697,0.0414 0.454918,0.62494 0.369562,0.93389 -0.304512,1.09973 -1.057551,0.26261 -1.599865,0.74742 -1.599865,1.43144 0,0.92976 0.398171,1.1292 2.206659,1.09556 1.595643,-0.0235 1.629013,-0.0159 2.355373,0.77893 1.695784,1.86163 0.473023,4.26497 -2.498457,4.91005 -0.567652,0.12579 -0.75932,0.0659 -1.038755,-0.34168 z m 68.941385,-3.08045 c -0.43191,-0.23072 -1.07841,-0.8417 -1.43511,-1.36013 -0.5635,-0.81619 -0.6466,-1.13331 -0.63181,-2.40359 0.0159,-1.55938 0.35439,-2.45725 1.23481,-3.28469 1.13476,-1.06608 3.06362,-1.46074 4.56581,-0.93389 0.71981,0.25172 0.78648,0.36763 0.56103,0.95924 -0.10413,0.26878 -0.45655,0.35025 -1.49562,0.35025 -1.89188,0 -3.05978,0.85836 -3.3347,2.45328 -0.21726,1.2615 0.38164,2.30021 1.96077,3.38907 0.47794,0.32946 0.5405,0.4768 0.35047,0.83325 -0.28542,0.53558 -0.75934,0.53558 -1.77299,-0.002 z m -61.592189,-0.35939 c -0.388258,-0.47015 -8.6e-4,-1.09138 0.677875,-1.09138 0.677856,0 1.065853,0.62327 0.677856,1.09138 -0.166861,0.18896 -0.464821,0.35266 -0.677856,0.35266 -0.213194,0 -0.517486,-0.16804 -0.677875,-0.35266 z m 54.022749,-2.14703 c -0.16686,-0.27478 -0.48372,-1.46713 -0.69847,-2.64791 -0.21455,-1.18175 -0.47137,-2.28027 -0.5693,-2.44165 -0.32319,-0.52492 -0.70336,0.14642 -1.29529,2.31252 -0.58163,2.1242 -0.86353,2.44912 -1.62912,1.88476 -0.38167,-0.28124 -0.37351,-0.38838 0.18796,-2.50542 0.32594,-1.21729 0.67376,-2.56166 0.77414,-2.9893 0.6614,-2.78371 0.83639,-3.10974 1.67076,-3.10974 0.74863,0 1.19525,0.83532 1.55403,2.91072 0.56517,3.28324 1.04288,3.43096 1.76257,0.54793 0.26895,-1.07464 0.58573,-2.05059 0.70257,-2.171 0.3166,-0.31856 1.14518,0.18899 1.14518,0.71107 0,0.95289 -1.64578,7.25125 -2.01078,7.69328 -0.38826,0.4727 -1.25154,0.36524 -1.59992,-0.18906 z m -46.206521,-0.60681 c -0.934523,-0.53972 -1.247358,-0.88572 -1.737496,-1.92676 -0.738774,-1.57208 -0.650758,-2.9788 0.279534,-4.49408 1.168144,-1.90141 3.877555,-2.66394 6.07417,-1.71052 0.911516,0.39649 0.969924,0.5183 0.52818,1.12498 -0.277174,0.38245 -0.402322,0.39073 -1.637496,0.12579 -1.272325,-0.27054 -1.385019,-0.25966 -2.291124,0.24351 -1.249408,0.69275 -2.058733,2.10149 -1.8502,3.21782 0.08282,0.4321 0.479615,1.15229 0.888679,1.59933 0.711585,0.78305 0.801273,0.81457 2.21116,0.81457 1.422571,0 1.493452,-0.0235 2.248611,-0.85635 0.657299,-0.72026 0.732152,-0.90463 0.479635,-1.15653 -0.221347,-0.22039 -0.521628,-0.24982 -1.132703,-0.10474 -0.698421,0.16796 -0.865602,0.12581 -1.049228,-0.21861 -0.374993,-0.70687 -0.254257,-0.8269 1.349599,-1.31601 1.900216,-0.58103 2.424845,-0.52896 2.80723,0.27482 0.249856,0.52632 0.239583,0.78052 -0.08362,1.7273 -0.719848,2.18255 -2.313441,3.31938 -4.645687,3.3157 -1.044987,-0.002 -1.539336,-0.12578 -2.449792,-0.65893 z m 36.175911,-1.32864 c -0.97204,-0.23897 -1.59154,-0.83952 -1.58939,-1.54252 5.5e-4,-0.31701 0.20891,-1.92676 0.44012,-3.57523 0.24193,-1.64972 0.44011,-3.01636 0.44011,-3.03833 9.1e-4,-0.0235 0.16686,-0.18886 0.34816,-0.38827 0.36295,-0.36513 1.88146,-0.46771 3.15759,-0.21027 0.57998,0.1259 0.6902,0.23956 0.6902,0.77643 0,0.63163 -0.0159,0.63822 -1.3203,0.63822 -1.21399,0 -1.33084,0.041 -1.4539,0.53981 -0.27716,1.11246 0.25426,1.6707 1.60406,1.67903 0.59229,0.002 0.80291,0.30876 0.61949,0.89419 -0.12505,0.37184 -0.33571,0.44284 -1.34544,0.44284 -1.23696,0 -1.25995,0.0159 -1.49562,1.11244 -0.16706,0.80794 0.10453,1.09139 1.31414,1.3936 0.93869,0.23368 1.08675,0.34437 1.08675,0.82535 0,0.49326 -0.10414,0.56039 -0.88234,0.59343 -0.48619,0.0235 -1.2098,-0.041 -1.61029,-0.14721 z m -25.966738,-0.27086 c -0.208914,-0.66725 -0.575885,-3.11853 -0.832253,-5.48327 -0.271592,-2.50982 -0.271592,-2.5276 0.225379,-2.93098 0.675424,-0.5497 2.308289,-0.7707 3.359988,-0.45361 1.416319,0.42632 2.193074,2.1164 1.539416,3.34569 -0.166861,0.30205 -0.104142,0.54557 0.218606,0.96138 0.254257,0.32517 0.523239,1.18369 0.653248,2.07776 0.312695,2.17331 0.325949,2.11599 -0.490328,2.03588 -0.69269,-0.0659 -0.721479,-0.10515 -0.865623,-1.28654 -0.187967,-1.49019 -0.732192,-2.05899 -1.798024,-1.85115 -0.917878,0.18908 -1.040846,0.40885 -0.869804,1.61817 0.271272,1.89097 0.225378,2.10806 -0.442644,2.18556 -0.36291,0.041 -0.644145,-0.041 -0.698422,-0.22268 z m 2.380171,-5.52858 c 0.669683,-0.53152 0.734682,-1.00112 0.217255,-1.57616 -0.415485,-0.462 -1.401784,-0.53723 -1.798054,-0.14733 -0.580006,0.58371 -0.146345,2.17697 0.59646,2.17697 0.222888,0 0.665512,-0.21025 0.986529,-0.45942 z m 5.659004,4.72979 c 0,-0.10508 0.208913,-0.9907 0.464821,-1.95617 0.548706,-2.07575 0.76097,-2.94891 1.059601,-4.35085 0.125048,-0.57117 0.369182,-1.39576 0.550356,-1.83229 0.271623,-0.65068 0.444235,-0.79306 0.967914,-0.79306 0.352016,0 0.796331,0.16785 0.988659,0.38829 0.300251,0.33348 2.809301,7.74786 2.809301,8.30037 0,0.10508 -0.323248,0.18899 -0.717397,0.18899 -0.590659,-0.002 -0.775765,-0.12581 -1.049228,-0.7218 -0.29635,-0.63997 -0.441784,-0.72438 -1.372476,-0.7848 -1.293221,-0.0828 -1.889822,0.22042 -1.979499,1.01168 -0.06592,0.53145 -0.187967,0.61912 -0.896992,0.6804 -0.454898,0.041 -0.827981,-0.0235 -0.827981,-0.12579 z m 4.064321,-3.54753 c 0.166861,-0.5372 -0.425269,-2.16587 -0.788089,-2.16587 -0.456568,0 -0.963682,1.81356 -0.623588,2.22671 0.373443,0.45366 1.263992,0.41556 1.410067,-0.0659 z m 6.037242,3.33963 c -0.38359,-0.42789 -0.51502,-0.89831 -1.38293,-4.99746 -0.73383,-3.46329 -0.72561,-3.7288 0.10413,-3.7288 0.60878,0 0.66143,0.0828 0.91368,1.27816 0.6507,3.12223 0.99699,4.3595 1.2431,4.4399 0.34619,0.10514 0.74291,-0.70522 1.61028,-3.32915 0.68041,-2.05899 0.74701,-2.16584 1.33919,-2.16584 0.3423,0 0.68199,0.10516 0.75519,0.21454 0.22691,0.36907 -1.5707,5.88792 -2.6071,8.00389 -0.34619,0.70935 -1.44348,0.86673 -1.96702,0.28564 z"
     id="path3728"
     inkscape:connector-curvature="0"
     inkscape:label="Ecritures"
     sodipodi:nodetypes="cscccssccccccsccccccccsccccccccccscscccccccccccccccsccccccccccsscccccccccccccsccccccccccccccccccccccccccccccccccccccccccccccccccsccscccccccccccccccccscccscccccccccccccccccccscccsccccccsccccssccccscccccccccccsccccccscsccccccccscccsccccccccccccsccccccccccccccccsscccsccsccccccccccccccccccccsccccccscsccccccccscccccscccscccc"
     sodipodi:insensitive="true" />
</svg>
